<?xml version="1.0" standalone="no"?>
<!DOCTYPE svg PUBLIC "-//W3C//DTD SVG 20010904//EN"
 "http://www.w3.org/TR/2001/REC-SVG-20010904/DTD/svg10.dtd">
<svg version="1.0" xmlns="http://www.w3.org/2000/svg"
 width="1024.000000pt" height="576.000000pt" viewBox="0 0 1024.000000 576.000000"
 preserveAspectRatio="xMidYMid meet">

<g transform="translate(0.000000,576.000000) scale(0.100000,-0.100000)"
fill="#000000" stroke="none">
<path d="M0 4534 c0 -1076 2 -1227 15 -1240 8 -9 15 -11 15 -5 0 6 9 11 20 11
11 0 20 -4 20 -10 0 -5 -7 -10 -15 -10 -18 0 -19 -17 -2 -53 22 -48 30 -37 31
43 1 43 2 45 34 48 36 4 37 5 20 32 -10 15 -9 22 5 38 19 20 23 52 7 52 -6 0
-5 8 2 19 13 22 33 17 24 -5 -3 -8 -1 -14 5 -14 6 0 10 24 9 58 -3 105 0 216
5 210 5 -5 13 -99 14 -171 1 -36 2 -37 33 -32 36 7 50 15 25 15 -9 0 -17 7
-17 16 0 8 -4 13 -9 10 -6 -4 -9 45 -9 116 1 68 0 170 -1 227 -1 65 3 107 9
111 7 4 6 11 -5 20 -20 16 -19 37 2 48 15 9 15 15 5 50 -14 46 -15 55 -4 48 4
-2 6 14 5 37 -1 23 -7 43 -13 45 -5 2 -10 11 -9 20 0 11 2 12 6 5 6 -15 53
-18 53 -3 0 6 -9 10 -20 10 -22 0 -27 25 -7 34 6 3 3 4 -8 1 -18 -4 -20 -1
-17 40 3 34 8 45 21 45 14 1 14 2 -1 11 -22 12 -24 39 -4 39 8 0 22 7 31 17
15 15 15 17 1 25 -22 12 -20 35 4 43 22 7 27 21 9 27 -10 3 -4 57 20 170 4 20
5 42 0 49 -4 7 1 24 12 39 11 14 21 39 22 56 2 23 7 29 25 27 24 -3 28 8 11
39 -14 26 6 52 21 28 8 -12 10 -12 16 3 3 10 4 29 2 42 -4 21 -1 25 18 25 13
0 25 8 29 19 4 13 12 17 30 13 19 -3 25 1 31 22 3 14 10 26 15 26 4 0 13 18
19 40 6 22 15 40 20 40 5 0 12 17 15 38 10 60 14 67 27 54 7 -7 24 -12 38 -12
14 0 32 -6 38 -12 10 -10 15 -10 22 2 8 12 13 11 33 -8 23 -21 28 -22 66 -12
23 6 51 8 62 5 31 -10 81 4 75 21 -3 9 -1 12 4 9 6 -3 10 -13 10 -21 0 -15 39
-35 53 -27 4 2 7 12 7 21 0 11 8 18 20 19 17 2 20 -5 22 -38 0 -21 1 -43 2
-49 1 -5 -3 -10 -9 -11 -16 -1 -27 -41 -13 -50 9 -6 9 -14 1 -31 -7 -16 -8
-30 -1 -41 7 -13 3 -23 -16 -42 -35 -35 -66 -33 -66 3 0 16 -6 37 -14 47 -12
16 -16 17 -30 6 -9 -7 -16 -20 -16 -27 0 -17 -12 -18 -28 -2 -27 27 -43 -47
-21 -96 8 -16 23 -26 45 -31 42 -7 57 1 51 27 -6 20 -2 23 51 32 27 5 32 2 32
-14 0 -10 -5 -22 -10 -25 -7 -4 -7 -12 0 -25 5 -10 10 -30 10 -44 0 -22 -4
-26 -30 -26 -24 0 -30 -4 -30 -20 0 -43 49 -107 51 -67 0 6 4 2 9 -10 6 -14
15 -21 23 -17 12 4 14 -3 10 -38 -3 -24 0 -63 6 -87 5 -25 6 -51 2 -59 -5 -8
-4 -27 2 -42 9 -25 13 -27 31 -16 12 6 24 15 28 20 10 14 -1 34 -19 32 -9 0
-18 5 -21 13 -3 10 3 13 26 9 26 -4 29 -2 22 12 -5 10 -8 30 -7 45 1 15 -4 30
-11 32 -8 3 -10 -1 -5 -14 6 -17 5 -17 -15 1 -28 25 -28 32 3 40 18 5 25 13
25 30 0 19 -4 23 -20 19 -11 -3 -20 -1 -20 5 0 15 42 23 57 10 18 -15 29 17
17 50 -7 19 -20 30 -49 37 -45 13 -64 41 -22 33 19 -4 27 0 30 14 3 11 0 18
-10 18 -18 0 -13 32 6 38 10 3 12 0 8 -12 -4 -9 -2 -16 3 -16 5 0 10 -10 12
-22 2 -19 10 -24 42 -26 46 -4 47 21 0 26 -41 5 -59 34 -28 46 17 7 74 -22 74
-38 0 -11 31 -35 48 -36 18 0 15 21 -5 36 -10 7 -18 17 -18 23 0 11 -60 58
-87 67 -9 3 -19 12 -22 19 -7 19 26 84 46 91 13 4 16 12 13 27 -3 12 1 42 10
66 8 24 15 63 15 87 0 36 3 44 19 44 20 0 30 -24 32 -80 2 -31 3 -30 11 15 5
28 9 62 9 78 0 15 5 27 12 27 7 0 6 4 -3 10 -12 8 -11 10 7 10 17 0 20 -4 15
-22 -5 -20 -3 -21 10 -10 13 10 16 9 21 -9 4 -15 11 -20 22 -15 24 9 50 -9 65
-44 7 -16 16 -30 21 -30 4 0 28 -21 53 -46 42 -42 75 -52 62 -18 -3 8 0 23 6
34 10 15 9 32 -5 84 -22 83 -21 102 2 109 18 4 20 -2 23 -72 2 -42 0 -92 -4
-111 -4 -19 -3 -49 3 -66 5 -18 15 -149 22 -293 7 -143 16 -264 20 -267 6 -7
11 322 8 561 -1 143 9 275 22 275 17 1 67 47 67 62 0 7 7 0 15 -15 8 -16 14
-31 13 -35 -5 -23 16 -162 25 -162 6 0 7 20 3 55 -7 62 5 72 29 25 9 -18 15
-53 14 -92 -1 -47 -3 -57 -9 -38 -8 24 -8 24 -9 -5 0 -16 4 -48 9 -70 8 -34 5
-48 -15 -92 -14 -28 -25 -63 -25 -76 0 -41 12 -87 21 -81 5 3 9 0 9 -5 0 -6
-4 -11 -10 -11 -19 0 -10 -29 16 -47 18 -13 27 -31 31 -61 14 -106 28 -16 26
168 -1 38 2 49 7 35 5 -11 9 -30 9 -42 1 -20 35 -42 48 -29 3 2 8 82 11 175 3
94 9 171 13 171 5 0 9 -15 10 -32 3 -124 6 -158 12 -164 4 -4 4 -18 1 -30 -4
-13 -3 -36 1 -51 6 -25 7 -26 17 -9 7 12 8 59 3 135 -9 132 -8 514 2 580 3 23
9 38 12 32 5 -7 16 -2 31 14 l23 25 -1051 0 -1052 0 0 -1226z m1850 965 c0
-11 -4 -17 -10 -14 -5 3 -10 15 -10 26 0 11 5 17 10 14 6 -3 10 -15 10 -26z
m-13 -71 c-3 -8 -6 -5 -6 6 -1 11 2 17 5 13 3 -3 4 -12 1 -19z m150 -30 c-3
-8 -6 -5 -6 6 -1 11 2 17 5 13 3 -3 4 -12 1 -19z m-917 -69 c0 -21 -13 -23
-45 -8 -19 9 -18 9 3 5 17 -3 22 1 22 16 0 10 5 16 10 13 6 -3 10 -15 10 -26z
m91 -250 l-9 -34 -1 31 c-1 17 2 34 6 37 12 13 14 -1 4 -34z m-31 -59 c0 -18
-3 -19 -20 -10 -11 6 -20 15 -20 20 0 6 9 10 20 10 13 0 20 -7 20 -20z m-63
-202 c-3 -8 -6 -5 -6 6 -1 11 2 17 5 13 3 -3 4 -12 1 -19z m-17 -33 c0 -8 -4
-15 -10 -15 -5 0 -10 7 -10 15 0 8 5 15 10 15 6 0 10 -7 10 -15z m-855 -946
c11 -16 1 -19 -13 -3 -7 8 -8 14 -3 14 5 0 13 -5 16 -11z m-18 -231 c-3 -7 -5
-2 -5 12 0 14 2 19 5 13 2 -7 2 -19 0 -25z m-15 -60 c2 -20 0 -34 -4 -32 -4 3
-8 24 -7 47 1 47 6 41 11 -15z m-85 -320 c-3 -8 -6 -5 -6 6 -1 11 2 17 5 13 3
-3 4 -12 1 -19z"/>
<path d="M2120 5755 c0 -15 24 -53 31 -49 5 3 9 -5 9 -18 0 -13 7 -45 15 -71
17 -56 34 -285 66 -892 7 -121 15 -224 20 -229 8 -9 45 57 61 109 38 122 39
165 5 232 -22 41 -21 59 2 89 18 23 19 40 14 358 -5 246 -3 335 5 340 7 4 13
0 14 -11 0 -10 2 -29 3 -43 4 -35 14 -267 20 -452 3 -87 8 -165 11 -173 4 -11
21 -15 58 -15 36 0 69 -9 113 -29 46 -22 65 -27 70 -18 9 14 8 53 -7 362 -5
121 -10 286 -10 368 l0 147 -250 0 c-137 0 -250 -2 -250 -5z"/>
<path d="M2645 5741 c3 -10 8 -57 10 -103 3 -45 7 -112 10 -148 2 -36 7 -114
10 -175 6 -125 17 -325 20 -370 1 -16 -1 -43 -6 -60 -4 -16 -10 -56 -14 -88
l-6 -57 -38 6 c-23 4 -48 1 -61 -6 -33 -17 -80 -19 -117 -3 -42 17 -43 17 -43
-7 0 -22 5 -23 90 -25 149 -4 166 -6 142 -16 -22 -8 -124 -13 -167 -7 -11 2
-21 -4 -23 -14 -3 -14 9 -18 76 -23 97 -9 109 -15 91 -43 -11 -18 -9 -29 18
-84 17 -35 34 -83 38 -108 3 -25 11 -58 15 -75 5 -16 14 -58 21 -93 9 -48 18
-67 35 -79 13 -8 21 -19 18 -24 -3 -5 -1 -9 4 -9 13 0 23 -40 14 -54 -3 -6 -7
-15 -7 -21 -3 -29 -19 -45 -46 -45 -40 0 -46 -21 -43 -158 3 -163 20 -260 63
-358 12 -26 21 -53 21 -62 0 -8 15 -29 34 -47 l35 -32 -35 -34 c-60 -57 -128
-159 -115 -172 8 -8 17 -5 33 10 23 21 23 21 71 3 87 -33 128 -100 53 -86 -45
9 -94 -3 -98 -23 -2 -11 -22 -20 -68 -28 l-65 -12 95 5 c52 2 109 7 125 10
l30 6 -30 -17 c-16 -9 -45 -26 -64 -37 -18 -12 -54 -22 -78 -24 -33 -1 -52 -9
-72 -28 -15 -14 -30 -24 -33 -21 -3 3 -18 0 -34 -6 -16 -7 -33 -11 -37 -10 -4
0 -17 -4 -29 -10 -16 -9 -19 -8 -13 2 6 9 3 10 -11 5 -53 -22 -126 -36 -141
-27 -13 7 -21 3 -35 -14 -10 -13 -18 -29 -18 -35 0 -8 -6 -9 -17 -5 -39 16
-62 16 -87 0 -14 -10 -26 -13 -26 -7 0 13 -70 11 -71 -2 -1 -6 -1 -17 0 -23 2
-15 -15 -17 -23 -4 -3 5 -15 7 -25 4 -17 -4 -18 -7 -5 -31 18 -35 18 -38 -6
-62 -16 -16 -20 -17 -20 -5 0 19 -19 20 -26 0 -5 -12 -9 -12 -29 1 -27 18 -44
2 -25 -21 10 -12 10 -15 -1 -15 -10 0 -11 -2 -2 -8 6 -4 14 -19 18 -34 5 -19
14 -28 33 -30 17 -2 26 -9 27 -23 2 -23 24 -66 25 -47 0 23 16 12 33 -23 16
-34 45 -51 33 -20 -3 8 -1 15 5 15 18 0 22 -31 5 -43 -11 -9 -13 -16 -6 -27 8
-12 10 -12 10 -1 0 20 30 -6 31 -28 0 -10 2 -11 6 -3 2 6 16 12 30 12 21 0 23
-3 18 -22 -7 -22 -6 -22 11 1 12 18 14 26 6 29 -28 9 2 20 43 16 31 -4 45 -2
45 7 0 23 38 -21 43 -51 4 -17 15 -31 27 -35 12 -4 20 -15 20 -30 0 -12 7 -25
15 -29 9 -3 15 1 15 11 0 12 3 13 14 3 8 -6 13 -17 10 -24 -3 -8 4 -16 16 -19
17 -4 20 -10 15 -28 -6 -17 -4 -21 8 -16 15 6 57 -26 57 -43 0 -6 6 -10 14
-10 8 0 23 -11 33 -24 18 -22 21 -23 51 -10 31 13 32 12 21 -8 -6 -11 -7 -18
-2 -15 5 3 15 1 23 -4 12 -9 13 -11 1 -16 -7 -3 -41 -31 -75 -63 -33 -31 -84
-77 -112 -101 -118 -103 -178 -155 -193 -166 -14 -11 -14 -14 -1 -24 13 -9 12
-10 -4 -5 -22 7 -111 -77 -100 -96 4 -6 3 -8 -2 -5 -15 9 -157 -140 -148 -155
3 -4 0 -8 -7 -8 -15 0 -96 -86 -157 -167 -53 -69 -59 -79 -105 -148 -18 -27
-58 -87 -90 -132 -31 -45 -57 -86 -57 -90 0 -4 -11 -18 -24 -31 l-24 -22 -22
30 c-13 19 -19 37 -15 50 5 15 2 20 -12 20 -14 0 -19 7 -18 28 0 15 5 30 10
34 7 5 6 14 -2 28 -7 11 -13 27 -13 35 0 9 -9 15 -22 15 -13 0 -18 4 -13 8 17
12 17 40 0 72 -9 17 -16 46 -17 65 -1 19 -7 36 -15 39 -9 4 -12 13 -8 25 3 11
-1 36 -10 56 -8 21 -15 51 -15 67 0 19 -4 27 -12 22 -7 -4 -8 -3 -4 5 4 7 3
33 -3 59 -6 26 -13 61 -15 77 -2 17 -5 32 -6 35 -1 3 -2 8 -1 12 0 4 -4 33
-10 65 -6 32 -12 67 -14 78 -5 37 -18 80 -27 92 -5 7 -7 17 -3 23 4 6 2 17 -5
25 -12 15 -31 101 -33 155 -1 19 -5 38 -10 41 -11 8 0 29 14 29 5 0 9 -7 9
-15 0 -8 5 -15 10 -15 6 0 10 8 10 18 0 9 3 27 6 40 5 17 3 21 -9 16 -8 -3
-18 -1 -22 5 -3 6 -1 11 4 11 24 0 9 19 -19 25 -34 7 -36 11 -16 31 20 20 28
17 21 -6 -5 -16 -2 -20 14 -20 12 0 21 5 21 11 0 5 -4 7 -10 4 -5 -3 -10 -1
-10 6 0 7 -7 21 -17 31 -15 17 -15 18 3 19 11 0 14 3 6 6 -10 4 -10 8 -1 19 9
11 7 14 -10 14 -11 0 -21 4 -21 9 0 9 -30 24 -36 18 -2 -2 5 -13 16 -25 12
-12 16 -22 10 -22 -7 0 -4 -7 4 -16 18 -18 20 -30 6 -39 -6 -3 -10 0 -10 8 0
10 -8 13 -24 10 -15 -3 -25 1 -30 12 -4 13 -2 16 9 12 8 -4 17 -2 20 3 4 6 -8
10 -25 10 -17 0 -40 4 -50 10 -15 8 -20 6 -25 -11 -4 -11 -9 -18 -12 -16 -15
15 72 120 152 183 l40 32 -25 46 c-22 42 -28 46 -62 46 -31 0 -39 5 -52 32 -9
17 -17 41 -17 52 -1 17 -2 18 -6 4 -3 -11 -14 -18 -28 -18 -19 0 -25 8 -35 48
-7 26 -14 75 -15 110 -1 59 0 64 24 77 14 7 39 27 55 44 16 17 33 28 38 25 5
-4 19 4 30 16 16 17 29 21 57 17 28 -3 42 1 61 19 14 12 36 24 50 26 14 2 30
7 37 11 6 4 14 3 18 -2 3 -6 12 -8 20 -4 8 3 15 0 15 -6 0 -7 16 -2 39 11 27
15 41 32 45 50 3 16 12 28 20 28 7 0 49 37 92 83 82 85 123 120 161 131 20 6
22 2 28 -48 6 -49 4 -61 -19 -100 -14 -24 -39 -58 -56 -74 -16 -17 -30 -33
-30 -36 0 -10 39 -6 45 4 11 18 83 50 98 44 20 -7 27 -37 20 -82 -3 -20 -3
-34 1 -30 4 3 11 44 16 90 15 150 31 283 38 308 7 22 15 26 65 31 32 4 61 10
65 14 4 3 8 67 10 140 4 147 -14 269 -50 339 -20 38 -20 39 0 34 37 -10 47 6
46 76 -1 75 -17 114 -50 122 -39 10 -63 -4 -70 -42 -8 -44 -20 -51 -36 -20
-13 24 -170 148 -215 169 -13 5 -23 13 -23 16 0 3 -19 7 -42 8 -24 2 -74 5
-111 9 -93 8 -150 -14 -228 -87 -44 -41 -66 -55 -80 -52 -15 4 -22 0 -26 -16
-9 -37 -28 -23 -30 23 -2 36 2 45 18 49 27 7 26 53 -2 68 -21 11 -38 0 -39
-23 0 -5 -4 -8 -9 -8 -8 0 -6 22 5 59 3 11 7 11 19 1 12 -10 15 -9 15 3 0 9 9
25 20 35 l21 19 -23 7 c-34 9 -38 8 -38 -10 0 -21 -22 -42 -39 -36 -11 4 -13
-5 -8 -42 5 -31 3 -46 -4 -46 -8 0 -7 -5 1 -15 7 -8 16 -13 20 -10 5 3 11 1
15 -4 9 -16 -22 -81 -44 -89 -18 -7 -18 -8 -3 -27 10 -11 30 -26 45 -33 18 -8
26 -17 21 -25 -4 -6 -17 -28 -30 -47 -12 -20 -25 -50 -28 -67 -5 -20 -15 -33
-29 -37 -14 -4 -18 -9 -10 -14 12 -8 6 -62 -7 -62 -4 0 -11 -17 -14 -37 -10
-54 -56 -194 -72 -218 -8 -11 -14 -31 -14 -45 0 -20 -2 -22 -10 -10 -5 8 -10
25 -10 37 0 12 -5 25 -11 28 -6 5 -10 -12 -9 -47 0 -89 -4 -116 -22 -127 -12
-7 -18 -8 -18 -1 0 5 5 10 10 10 6 0 -4 13 -22 29 -18 16 -36 27 -39 25 -3 -2
-12 -25 -19 -51 -17 -65 -51 -125 -67 -119 -7 3 -20 -2 -29 -11 -15 -15 -18
-15 -35 8 -16 20 -20 22 -29 9 -12 -19 -13 -50 -1 -50 14 0 23 -32 11 -44 -7
-7 -10 -6 -10 3 0 14 -28 40 -42 41 -12 0 -9 -35 3 -47 7 -7 12 -35 13 -62 1
-34 5 -51 14 -51 14 0 14 -3 2 -55 -6 -26 -5 -64 1 -109 6 -38 7 -71 2 -75 -4
-3 -9 -30 -11 -60 -2 -30 -9 -59 -16 -65 -8 -6 -16 -18 -19 -26 -3 -9 -8 -2
-12 18 -4 17 -13 32 -20 32 -20 0 -24 -57 -5 -77 12 -14 16 -40 15 -118 0 -55
-4 -103 -8 -106 -10 -7 2 -39 14 -39 11 0 12 -54 2 -64 -11 -11 -3 -210 8
-214 14 -5 11 -64 -5 -94 -12 -23 -12 -27 0 -32 29 -11 -3 -54 -122 -167 -56
-53 -116 -88 -122 -70 -2 6 -7 9 -12 6 -10 -6 -27 72 -29 140 -4 94 -11 58
-12 -61 -1 -65 -3 -111 -6 -102 -2 9 -10 15 -17 12 -7 -3 -19 2 -26 11 -7 8
-20 15 -30 15 -9 0 -20 3 -24 7 -4 4 -15 8 -24 8 -10 0 -16 7 -15 15 3 14 -21
30 -87 58 -18 8 -20 11 -7 11 20 1 23 29 4 37 -9 3 -14 26 -14 72 -1 37 -5 82
-8 99 -6 27 -4 33 9 33 14 0 15 4 6 21 -9 16 -8 25 6 40 16 18 16 19 -14 19
l-32 0 0 -735 0 -735 31 0 c37 0 29 -20 -9 -21 l-27 -1 25 -7 25 -7 -22 -8
c-23 -7 -23 -10 -23 -177 l0 -170 43 6 c23 3 100 12 171 19 133 15 164 26 127
45 -14 8 -21 8 -21 1 0 -19 -37 -10 -54 13 -12 15 -18 18 -22 10 -3 -7 -11
-13 -17 -13 -5 0 -7 3 -4 7 13 13 -35 35 -88 40 -57 6 -72 19 -32 27 113 23
619 64 1177 96 374 22 572 34 775 50 72 6 229 17 350 25 121 8 276 20 345 25
904 75 1198 96 1208 86 11 -12 -7 -16 -110 -30 -117 -15 -127 -19 -213 -86
-67 -54 -105 -77 -185 -115 -30 -15 -63 -31 -72 -36 -79 -41 -222 -98 -263
-104 -27 -4 -54 -10 -60 -15 -5 -4 -64 -11 -130 -14 -129 -8 -238 -22 -270
-36 -11 -5 -53 -11 -93 -14 -41 -3 -79 -9 -85 -14 -7 -5 -32 -9 -55 -10 -24 0
-50 -6 -58 -13 -9 -8 -64 -12 -164 -12 -83 -1 -150 -4 -150 -9 0 -13 -27 -9
-40 7 -7 8 -16 12 -22 9 -15 -10 -78 -12 -72 -3 7 12 1 11 -32 -1 -17 -7 -31
-7 -38 -1 -8 6 -17 6 -26 -1 -12 -8 -12 -9 3 -4 10 3 17 0 17 -7 0 -12 71 -84
102 -104 14 -9 28 -31 86 -135 l37 -68 4088 0 4087 0 0 390 c0 392 -2 418 -34
375 -6 -8 -25 -17 -41 -18 -17 -2 -39 -9 -50 -14 -26 -14 -295 -10 -360 5 -27
6 -59 13 -70 16 -48 11 -76 28 -124 77 l-51 52 -70 -27 c-100 -40 -198 -51
-284 -33 -64 13 -70 13 -87 -4 -11 -11 -32 -19 -49 -19 -19 0 -33 -7 -40 -20
-15 -28 -2 -26 74 12 56 28 68 30 91 20 22 -10 24 -15 15 -32 -6 -11 -21 -20
-34 -20 -18 0 -30 -14 -59 -70 -40 -76 -44 -90 -24 -90 19 0 48 -34 50 -59 2
-33 15 -25 39 24 l22 45 29 -47 c17 -26 42 -76 58 -110 22 -49 25 -64 15 -72
-7 -6 -17 -7 -21 -3 -5 4 -5 2 -2 -5 9 -14 -70 -73 -89 -66 -8 3 -11 9 -8 14
3 5 -5 9 -17 9 -18 0 -19 -2 -9 -15 11 -14 10 -14 -15 -5 -18 7 -31 7 -40 0
-6 -5 -15 -7 -18 -3 -4 3 -14 0 -23 -8 -15 -12 -16 -11 -10 9 5 15 4 22 -4 20
-7 -2 -40 49 -73 112 -34 64 -72 129 -84 146 -15 22 -29 72 -48 182 l-27 153
27 87 c14 48 31 105 38 127 7 22 12 88 12 147 -1 60 3 108 9 108 23 0 128 -45
133 -57 3 -7 16 -13 28 -13 13 0 25 -4 27 -10 2 -5 15 -11 30 -12 28 -2 29 -6
11 -55 -6 -15 44 -66 59 -61 7 3 19 19 27 36 9 17 21 32 27 32 7 0 13 48 18
138 16 326 47 852 52 903 l6 57 -72 12 c-81 14 -87 21 -82 95 3 38 8 46 28 51
13 3 24 13 24 21 0 10 6 13 16 9 9 -3 21 -6 27 -6 7 0 6 -4 -3 -10 -19 -12
140 -13 305 -1 134 10 155 16 155 40 0 14 2 14 10 1 8 -12 10 -12 15 2 4 10 4
21 1 27 -9 14 4 41 21 41 8 0 11 5 8 10 -3 6 5 10 19 10 14 0 28 5 31 11 4 6
13 8 21 5 7 -3 18 4 24 14 16 29 71 26 108 -5 27 -22 39 -53 45 -107 1 -16 13
-18 89 -18 67 0 88 3 88 13 0 25 -52 142 -77 175 -45 59 -115 77 -393 98 -84
6 -86 7 -108 41 -48 72 -153 93 -470 93 -219 0 -235 -4 -277 -70 l-25 -40 -80
0 c-43 0 -81 -4 -84 -8 -2 -4 -10 -109 -16 -232 -11 -218 -22 -331 -36 -377
-5 -19 -2 -23 17 -23 12 0 48 -20 78 -44 50 -39 195 -116 218 -116 5 0 38 80
72 178 72 199 143 351 149 315 5 -30 -13 -84 -111 -336 -84 -216 -109 -267
-127 -267 -5 0 -39 -60 -76 -132 -36 -73 -70 -138 -76 -145 -6 -8 -27 2 -76
39 -37 28 -71 58 -76 67 -5 9 -32 41 -60 71 -29 30 -73 81 -99 112 l-48 57 28
14 c15 8 51 17 80 20 29 3 64 14 79 23 26 18 26 18 6 27 -16 7 -27 4 -48 -12
-15 -11 -36 -21 -48 -21 -31 0 -80 55 -115 129 -27 58 -50 146 -39 156 2 2 23
-1 47 -6 64 -14 71 -4 71 100 -1 105 24 332 39 360 18 34 13 38 -52 45 -99 11
-95 18 -89 -152 l5 -147 35 -34 35 -35 -27 -23 c-15 -13 -33 -23 -40 -23 -24
0 -48 -37 -41 -62 18 -60 -21 9 -72 128 -47 108 -55 137 -53 179 1 28 3 75 4
105 l1 55 -95 5 c-52 3 -108 12 -125 19 -16 7 -83 16 -147 19 -106 4 -122 3
-170 -18 -45 -19 -64 -22 -147 -18 -53 3 -104 8 -113 12 -30 13 -74 -40 -81
-99 -3 -28 -17 -125 -31 -218 -14 -92 -23 -174 -20 -182 4 -9 20 -15 38 -16
17 -1 42 -4 56 -9 25 -7 25 -7 -10 -23 -19 -8 -51 -18 -70 -22 -31 -7 -33 -9
-13 -16 11 -4 42 -6 67 -5 33 2 57 -4 85 -19 24 -14 44 -19 53 -14 7 4 19 4
26 0 7 -4 51 1 99 11 49 10 126 19 173 20 87 2 109 -3 355 -77 74 -23 135 -61
135 -85 0 -17 -18 -11 -23 8 -4 16 -5 16 -6 -1 -1 -16 -3 -16 -31 -2 -39 20
-185 74 -230 85 -19 4 -69 20 -110 34 -76 26 -144 33 -154 17 -3 -5 -17 -8
-31 -8 -37 0 -115 -24 -115 -35 0 -6 -10 -8 -22 -5 -20 6 -87 -21 -209 -83
-40 -20 -53 -16 -63 20 -11 36 -45 110 -52 110 -3 0 -2 -5 2 -12 5 -7 3 -8 -6
-3 -10 6 -8 13 11 28 l24 20 -25 -8 c-57 -17 -68 -25 -77 -52 -8 -21 -30 -39
-90 -72 -105 -56 -146 -91 -180 -152 -21 -39 -29 -47 -33 -33 -5 14 -12 10
-39 -22 -45 -55 -105 -179 -150 -314 -22 -63 -44 -114 -50 -113 -6 2 -11 -1
-11 -5 0 -5 -24 -9 -52 -11 -83 -3 -116 -25 -144 -96 -31 -76 -104 -293 -104
-309 0 -7 27 -48 59 -92 32 -43 78 -117 102 -164 39 -77 44 -98 48 -186 1 -6
16 -31 34 -55 29 -38 143 -199 186 -263 10 -14 4 -11 -17 8 -18 17 -32 26 -32
22 0 -4 -12 6 -26 23 -14 17 -22 36 -19 42 5 7 0 7 -15 -1 -14 -8 -20 -8 -16
-1 9 14 -11 81 -33 107 -26 32 -101 66 -117 53 -9 -7 -19 -7 -33 1 -20 10 -23
16 -25 50 -1 9 -13 16 -29 18 -15 2 -33 12 -40 23 -6 10 -17 19 -24 19 -6 0
-15 10 -19 23 -4 12 -11 25 -16 28 -5 3 -10 16 -11 27 -1 16 -6 20 -19 16 -13
-4 -19 2 -24 20 -3 14 -10 26 -15 26 -5 0 -9 8 -9 17 0 13 -3 14 -11 6 -6 -6
-13 -35 -14 -63 -2 -41 2 -56 16 -68 11 -9 19 -20 19 -25 0 -5 14 -22 30 -39
17 -17 43 -47 57 -67 15 -20 40 -50 56 -68 25 -27 28 -35 17 -48 -11 -13 -16
-12 -40 13 -29 31 -60 47 -60 32 0 -6 -5 -10 -11 -10 -6 0 -9 9 -6 20 6 22 -8
28 -16 8 -7 -21 -20 0 -20 32 0 16 -5 30 -10 30 -5 0 -7 9 -4 20 3 11 1 20 -4
20 -5 0 -9 9 -9 20 0 11 -4 20 -10 20 -12 0 -24 -45 -15 -59 15 -26 35 -127
35 -184 0 -37 5 -69 13 -76 6 -8 7 -11 1 -8 -7 4 -11 -7 -12 -28 -1 -19 -8
-51 -17 -71 -8 -20 -15 -66 -16 -103 -1 -70 -17 -132 -37 -139 -16 -5 -15 28
3 71 20 49 19 60 -3 48 -16 -9 -18 -5 -14 52 2 34 10 77 18 95 19 40 31 172
17 172 -10 0 -19 -19 -44 -93 -8 -23 -18 -36 -26 -33 -7 3 -18 -4 -24 -15 -12
-23 -123 -79 -156 -79 -13 0 -23 -4 -23 -10 0 -18 -29 -11 -40 10 -6 11 -16
20 -23 18 -21 -4 -107 58 -154 111 -25 28 -54 51 -63 51 -10 0 -23 6 -29 14
-7 8 -31 14 -60 14 -26 0 -58 3 -69 7 -12 3 -22 3 -22 -2 0 -4 -97 -9 -215 -9
-119 -1 -226 -5 -240 -8 -19 -5 -25 -15 -30 -44 -3 -20 -13 -66 -21 -102 -8
-36 -20 -96 -27 -135 -8 -43 -18 -69 -25 -68 -7 2 -12 -3 -12 -10 0 -6 -14 3
-31 20 -33 36 -40 38 -71 22 -33 -17 -182 -39 -189 -27 -4 7 -9 6 -13 -1 -4
-6 -4 -11 1 -11 4 0 3 -4 -3 -8 -7 -4 -65 -3 -130 1 -179 12 -216 11 -257 -6
-20 -9 -37 -12 -37 -7 0 5 -7 7 -15 4 -20 -8 -187 15 -202 28 -33 27 10 271
102 583 15 50 28 99 29 110 1 11 10 37 20 58 9 21 33 82 52 135 58 162 140
315 211 395 66 76 72 77 318 77 121 0 291 -3 379 -7 l158 -6 29 -40 c16 -22
34 -56 39 -76 43 -144 70 -274 70 -333 0 -34 -3 -38 -25 -38 -33 0 -43 23 -54
127 -12 110 -30 167 -55 171 -32 6 -35 -11 -15 -72 13 -37 21 -90 22 -145 l2
-86 -80 0 c-68 0 -80 -3 -83 -17 -4 -22 15 -22 168 -8 58 5 143 12 190 14 178
9 261 19 252 28 -6 6 -7 22 -1 40 4 17 7 33 6 37 -1 4 9 18 23 32 29 27 90
109 90 120 0 5 11 20 25 35 14 15 23 34 21 41 -3 7 -1 13 5 13 5 0 14 12 19
28 6 15 15 36 20 47 13 27 49 179 43 185 -6 7 -20 -18 -54 -100 -48 -117 -120
-255 -147 -282 -7 -7 -12 -18 -12 -24 0 -7 -4 -15 -9 -18 -5 -3 -6 14 -4 39 5
35 0 53 -21 90 -15 25 -31 43 -36 40 -6 -3 -8 0 -5 7 3 7 -6 25 -20 40 -14 15
-25 30 -25 33 0 4 -30 37 -67 75 -38 38 -104 111 -148 162 -44 51 -100 110
-125 131 -63 54 -142 149 -131 160 11 11 2 47 -11 47 -5 0 -6 5 -3 10 4 6 1
17 -5 25 -7 8 -9 15 -6 15 4 0 0 12 -8 28 -8 15 -20 48 -27 73 -9 32 -17 45
-26 42 -9 -4 -13 4 -13 25 0 38 -12 47 -30 21 -16 -21 -35 -27 -24 -6 5 8 4 9
-4 2 -6 -5 -13 -31 -15 -58 -2 -26 -6 -50 -9 -52 -4 -4 -109 41 -148 64 -8 5
-14 15 -12 21 2 8 -6 11 -22 8 -14 -3 -29 -2 -35 1 -5 4 -10 94 -12 221 -3
259 -16 331 -78 445 -39 70 -42 80 -27 90 9 7 16 18 16 25 0 7 7 10 15 6 8 -3
15 -1 15 3 0 5 -4 11 -9 13 -5 2 -5 13 0 27 8 21 14 23 47 18 l37 -6 -30 17
-30 17 25 3 c29 4 52 22 28 22 -20 0 -28 41 -16 88 5 20 13 55 19 77 16 67 31
95 49 95 9 0 25 10 36 22 10 12 14 18 7 14 -19 -11 -27 39 -13 74 7 17 15 30
19 30 4 0 15 26 25 58 27 83 26 82 10 75 -10 -4 -12 0 -8 11 3 8 11 14 17 13
5 -1 13 9 17 23 3 14 12 25 20 26 47 3 50 5 50 28 0 13 5 26 12 28 8 3 11 43
9 139 -2 131 -13 182 -25 120 -20 -103 -17 -97 -32 -76 -10 14 -14 15 -14 4 0
-9 -3 -10 -8 -4 -4 6 -22 21 -40 34 -24 17 -31 28 -27 44 2 12 6 44 9 70 2 26
9 53 15 60 5 7 17 38 25 68 26 100 31 107 73 111 l38 3 5 345 c3 190 4 350 2
357 -4 14 -109 22 -123 8 -5 -5 -9 -33 -9 -62 0 -39 -4 -53 -14 -53 -10 0 -16
17 -21 58 -3 31 -10 64 -16 72 -5 8 -12 22 -15 30 -12 30 -22 55 -32 82 -6 14
-20 29 -30 32 -20 7 -33 37 -37 86 -3 35 -4 37 -14 21 -12 -19 -30 -5 -24 19
5 20 5 20 -26 3 -37 -21 -68 -8 -64 26 2 14 -1 20 -8 15 -7 -4 -10 -1 -7 7 3
8 13 13 22 11 14 -3 15 0 4 17 -6 11 -15 18 -19 15 -4 -2 -12 4 -18 13 -6 12
-30 22 -68 28 -45 8 -60 15 -68 33 -12 27 -75 33 -75 6 0 -11 -5 -14 -16 -10
-9 3 -22 6 -30 6 -8 0 -14 5 -14 11 0 6 -11 20 -24 30 -14 11 -28 28 -31 39
-9 28 -46 25 -79 -5 -25 -23 -28 -24 -51 -9 -13 9 -30 28 -37 44 -7 16 -15 27
-18 25 -4 -2 -14 9 -24 26 -9 16 -22 29 -27 29 -6 0 -17 7 -26 15 -8 8 -20 12
-26 8 -8 -4 -7 -1 1 9 9 11 10 18 2 23 -17 10 -11 23 9 18 12 -3 20 2 24 16 5
20 1 21 -94 21 -59 0 -99 -4 -99 -10 0 -5 11 -10 24 -10 21 0 32 -14 40 -52 0
-3 4 -10 9 -14 12 -12 8 -24 -8 -24 -9 0 -12 -6 -9 -15 4 -8 1 -15 -4 -15 -13
0 -42 28 -42 41 0 5 -7 9 -15 9 -7 0 -19 8 -24 18 -10 16 -10 16 -11 -2 0 -12
-5 -16 -15 -12 -9 3 -15 0 -15 -9 0 -8 -4 -15 -10 -15 -5 0 -10 -9 -10 -19 0
-24 -22 -32 -35 -14 -8 11 -15 11 -38 1 -15 -7 -30 -21 -33 -30 -3 -10 -16
-19 -30 -19 -32 -2 -37 -3 -51 -12 -7 -4 -21 -3 -32 3 -12 6 -22 6 -26 1 -3
-6 -18 -6 -36 -1 -23 7 -31 5 -36 -6 -8 -20 -34 -17 -40 5 -3 11 -15 22 -27
25 -21 5 -78 57 -111 101 -14 18 -14 9 -9 -95 4 -63 8 -117 10 -119 2 -2 4 8
4 22 0 22 4 26 25 25 29 -3 34 -18 6 -18 -14 0 -17 -6 -13 -27 4 -21 2 -25
-12 -20 -9 4 -16 2 -16 -4 0 -9 -51 -33 -59 -27 -5 4 -6 27 -9 201 l-2 137
-104 0 -104 0 3 -47 c5 -68 18 -374 17 -398 -2 -70 -15 -125 -28 -125 -8 0
-15 8 -16 18 -1 9 -2 24 -4 32 -1 8 -2 129 -3 268 l-1 252 -76 0 c-69 0 -75
-1 -69 -19z m1180 -61 c-3 -5 -12 -10 -18 -10 -7 0 -6 4 3 10 19 12 23 12 15
0z m-169 -97 c-11 -11 -24 9 -18 29 l5 22 9 -24 c5 -12 6 -25 4 -27z m-112 12
c-4 -8 -11 -12 -16 -9 -6 4 -5 10 3 15 19 12 19 11 13 -6z m102 -836 c3 -5 16
-9 28 -9 13 0 29 -6 35 -14 6 -7 33 -19 59 -26 26 -7 52 -19 59 -27 8 -11 16
-12 29 -5 10 6 29 6 46 2 27 -8 41 3 16 13 -7 3 -3 6 8 6 12 1 35 -6 50 -14
38 -20 84 -20 84 0 0 8 5 15 11 15 6 0 9 -7 6 -14 -4 -10 -1 -13 9 -9 7 3 14
0 14 -7 0 -13 43 -3 48 11 2 5 8 6 13 3 6 -3 23 0 40 6 24 10 33 10 52 -3 14
-9 29 -12 36 -7 23 14 48 -1 66 -38 10 -21 22 -45 27 -56 6 -10 11 -33 13 -50
5 -44 10 -65 17 -72 4 -3 4 -12 1 -20 -3 -9 2 -14 13 -15 16 0 15 -2 -3 -9
-13 -5 -23 -17 -23 -27 0 -16 -2 -16 -11 -3 -8 11 -9 8 -4 -15 4 -16 9 -41 11
-54 1 -13 9 -28 16 -33 9 -7 8 -8 -5 -4 -15 5 -17 2 -11 -17 3 -12 7 -22 8
-22 13 0 100 -53 106 -66 13 -24 -6 -29 -82 -23 -35 2 -79 4 -98 3 -19 -1 -44
-1 -55 0 -11 1 -33 3 -50 4 -16 1 -36 6 -42 10 -17 11 -30 2 -49 -35 -14 -28
-18 -29 -52 -22 -20 4 -47 8 -59 8 -15 1 -23 7 -23 19 0 10 -4 16 -9 12 -5 -3
-13 -1 -16 5 -4 6 -15 8 -26 5 -14 -5 -20 0 -25 22 -10 48 -14 54 -24 48 -8
-5 -7 -11 1 -21 16 -20 2 -31 -21 -16 -11 7 -42 12 -70 12 -31 0 -52 5 -56 13
-6 16 -105 21 -115 6 -5 -8 -61 -13 -168 -16 -137 -3 -165 -1 -186 13 -30 20
-33 44 -5 44 23 0 23 1 11 32 -20 50 -24 63 -22 76 1 6 -4 12 -11 12 -8 0 -14
15 -16 40 -2 36 0 40 20 41 13 0 17 3 11 6 -18 7 -16 33 2 33 8 0 15 -6 15
-14 0 -8 15 -17 36 -20 19 -4 54 -17 77 -30 34 -19 47 -21 72 -13 46 15 158
14 170 -1 10 -13 149 -22 160 -10 3 3 1 17 -4 31 -8 19 -6 28 4 37 8 7 12 17
9 22 -4 6 -9 6 -14 -1 -5 -9 -13 -9 -33 0 -21 9 -24 15 -16 26 9 10 6 13 -12
13 -37 0 -69 11 -63 21 3 5 16 9 29 9 13 0 27 5 30 10 6 10 -49 16 -112 11
-17 -1 -34 3 -38 9 -3 6 -11 7 -17 4 -5 -4 -20 -2 -31 4 -39 18 -89 32 -98 26
-5 -3 -9 2 -9 10 0 8 18 27 40 43 22 15 40 34 40 41 0 7 14 12 35 12 21 0 38
6 41 14 5 14 50 10 60 -5z m831 -401 c-3 -8 -6 -5 -6 6 -1 11 2 17 5 13 3 -3
4 -12 1 -19z m203 -140 c6 -24 15 -54 20 -68 6 -14 14 -86 20 -160 11 -154 24
-240 39 -269 6 -11 11 -30 11 -42 0 -22 0 -22 -15 -3 -14 17 -15 14 -14 -46 1
-85 0 -88 -11 -70 -5 8 -10 40 -10 69 0 81 -34 352 -55 441 -7 30 -16 85 -19
123 -5 55 -4 67 8 67 9 0 19 -16 26 -42z m-1119 -228 c20 -6 42 -16 48 -24 9
-11 3 -12 -36 -4 -27 6 -58 12 -71 14 -25 5 -21 24 6 24 9 0 33 -5 53 -10z
m921 -48 c4 -4 -8 -6 -27 -4 -19 2 -38 9 -42 15 -7 12 56 2 69 -11z m-455 0
c7 -4 10 -25 7 -52 -7 -95 -4 -123 22 -152 13 -16 24 -42 24 -58 0 -16 7 -30
15 -34 17 -6 21 -46 4 -46 -8 0 -8 -4 1 -15 7 -8 17 -38 24 -67 10 -46 15 -54
41 -61 17 -5 45 -15 63 -23 37 -16 39 -11 21 46 -6 19 -15 51 -19 70 -5 19
-13 52 -18 73 l-10 39 36 -7 c21 -3 47 -13 60 -21 21 -14 55 -9 36 5 -5 3 -15
16 -21 28 -11 19 -10 21 1 17 11 -4 13 0 9 16 -5 20 -3 21 71 19 42 -2 76 -7
76 -11 0 -4 5 -8 11 -8 5 0 7 5 4 10 -3 6 4 10 17 10 16 -1 31 -14 51 -44 15
-24 27 -51 27 -59 0 -9 5 -19 10 -22 6 -3 10 -14 10 -24 0 -25 -29 -81 -45
-88 -8 -2 -13 -12 -13 -21 2 -44 -26 -109 -61 -139 -20 -18 -31 -33 -25 -33 5
0 -12 -23 -38 -51 -26 -28 -48 -58 -48 -65 0 -17 -14 -18 -41 -3 -15 7 -24 7
-34 -1 -13 -11 -65 -4 -65 9 0 14 -75 32 -112 28 -25 -3 -39 0 -42 9 -3 8 -19
14 -36 14 -16 0 -30 3 -30 6 0 15 70 74 94 80 21 5 26 3 26 -14 0 -19 24 -32
62 -32 18 0 62 52 72 85 5 19 1 21 -57 23 -34 2 -72 10 -84 18 -20 13 -27 13
-58 0 -30 -13 -38 -13 -64 0 -16 8 -34 21 -41 29 -7 8 -35 22 -63 30 -47 14
-52 14 -83 -6 -38 -23 -72 -22 -88 3 -14 23 -6 29 46 35 65 9 80 30 82 122 1
42 5 82 9 88 4 7 5 23 2 36 -5 17 -2 26 9 30 10 4 16 18 16 35 0 37 25 61 43
42 9 -10 9 -11 0 -6 -17 10 -16 -2 1 -20 8 -7 12 -23 9 -34 -3 -12 0 -20 7
-20 9 0 11 17 8 64 -4 49 -2 71 10 88 25 36 38 43 59 30z m-441 -28 c31 -15
45 -33 27 -34 -5 -1 -27 -5 -50 -9 -23 -5 -45 -6 -47 -3 -6 5 22 62 30 62 3 0
21 -7 40 -16z m916 -35 c19 -10 19 -11 1 -24 -10 -7 -28 -15 -40 -19 -21 -7
-22 -6 -7 23 17 35 18 35 46 20z m-892 -23 c0 -2 -7 -7 -16 -10 -8 -3 -12 -2
-9 4 6 10 25 14 25 6z m557 -12 c-3 -3 -12 -4 -19 -1 -8 3 -5 6 6 6 11 1 17
-2 13 -5z m303 -34 c-20 -13 -47 -13 -55 0 -4 6 9 10 32 10 28 0 34 -3 23 -10z
m-935 -140 c3 -5 1 -10 -4 -10 -6 0 -11 5 -11 10 0 6 2 10 4 10 3 0 8 -4 11
-10z m-2125 -370 c0 -5 -4 -10 -10 -10 -5 0 -10 5 -10 10 0 6 5 10 10 10 6 0
10 -4 10 -10z m116 -39 c-20 -38 -83 -88 -96 -75 -11 11 35 74 53 74 5 0 19
12 30 27 26 32 34 15 13 -26z m2474 -21 c0 -12 -19 -48 -40 -73 -14 -18 -15
-18 -21 5 -8 34 1 58 25 68 29 12 36 12 36 0z m-2771 -62 c31 -23 57 -45 59
-50 2 -4 15 -5 29 -2 l26 7 -19 -32 c-10 -17 -21 -31 -24 -31 -3 -1 -34 -2
-70 -4 -36 -2 -66 -8 -68 -15 -2 -6 -12 -11 -23 -11 -12 0 -16 -5 -13 -15 8
-20 2 -19 -26 5 -18 16 -20 20 -7 20 23 0 21 17 -3 30 -15 8 -20 19 -18 42 1
18 -3 33 -10 36 -21 7 -13 32 11 32 13 0 27 4 33 9 8 8 33 17 58 20 5 0 34
-18 65 -41z m2930 -70 c15 -9 17 -16 8 -44 -9 -29 -12 -31 -36 -23 -14 4 -33
8 -41 7 -41 -3 -70 3 -70 16 0 7 -9 16 -20 19 -33 8 -23 27 14 27 19 0 38 5
42 11 8 13 75 5 103 -13z m-222 6 c-3 -3 -12 -4 -19 -1 -8 3 -5 6 6 6 11 1 17
-2 13 -5z m261 -193 c3 -8 -1 -12 -9 -9 -7 2 -15 10 -17 17 -3 8 1 12 9 9 7
-2 15 -10 17 -17z m-27 -17 c10 -12 7 -21 -21 -49 -19 -19 -37 -35 -42 -35
-21 0 -73 47 -70 63 2 12 9 16 19 13 8 -3 23 0 33 7 26 18 66 19 81 1z m-243
-16 c9 -9 12 -9 12 0 0 7 7 12 15 12 16 0 19 -17 9 -43 -4 -13 -11 -13 -37 -5
-40 13 -51 23 -43 37 9 14 29 14 44 -1z m-1838 -172 c0 -3 -4 -8 -10 -11 -5
-3 -10 -1 -10 4 0 6 5 11 10 11 6 0 10 -2 10 -4z m7710 -10 c0 -17 -14 -29
-23 -20 -8 8 3 34 14 34 5 0 9 -6 9 -14z m-7693 -32 c-3 -3 -12 -4 -19 -1 -8
3 -5 6 6 6 11 1 17 -2 13 -5z m-47 -14 c0 -5 -2 -10 -4 -10 -3 0 -8 5 -11 10
-3 6 -1 10 4 10 6 0 11 -4 11 -10z m3 -27 c-7 -2 -21 -2 -30 0 -10 3 -4 5 12
5 17 0 24 -2 18 -5z m127 -3 c0 -5 -4 -10 -10 -10 -5 0 -10 5 -10 10 0 6 5 10
10 10 6 0 10 -4 10 -10z m-205 -10 c4 -6 -7 -10 -25 -10 -18 0 -29 4 -25 10 3
6 15 10 25 10 10 0 22 -4 25 -10z m90 -10 c3 -5 1 -10 -4 -10 -6 0 -11 5 -11
10 0 6 2 10 4 10 3 0 8 -4 11 -10z m41 -45 c-3 -10 1 -15 14 -15 23 0 39 -22
21 -28 -11 -4 -11 -6 -1 -12 12 -8 6 -30 -8 -30 -4 0 -13 14 -20 30 -8 17 -17
28 -22 25 -4 -2 -7 7 -7 20 0 15 5 25 14 25 9 0 13 -6 9 -15z m7091 -11 c-3
-3 -12 -4 -19 -1 -8 3 -5 6 6 6 11 1 17 -2 13 -5z m-7037 -94 c12 -8 11 -10
-7 -10 -13 0 -23 5 -23 10 0 13 11 13 30 0z m60 -30 c0 -5 -2 -10 -4 -10 -3 0
-8 5 -11 10 -3 6 -1 10 4 10 6 0 11 -4 11 -10z m5503 -67 c-7 -2 -19 -2 -25 0
-7 3 -2 5 12 5 14 0 19 -2 13 -5z m-5323 -43 c0 -11 -4 -20 -10 -20 -5 0 -10
9 -10 20 0 11 5 20 10 20 6 0 10 -9 10 -20z m-1349 -47 c-8 -15 -10 -15 -11
-2 0 17 10 32 18 25 2 -3 -1 -13 -7 -23z m108 -47 c15 -18 15 -19 -2 -13 -10
4 -21 7 -23 7 -2 0 -4 12 -3 28 0 15 3 20 6 12 3 -8 13 -24 22 -34z m38 -3 l1
-27 -18 24 c-19 26 -18 42 3 34 7 -2 13 -16 14 -31z m3209 0 c-15 -165 -80
-371 -150 -473 -58 -83 -159 -175 -183 -166 -8 3 -11 1 -8 -4 8 -13 -5 -13
-25 0 -10 6 -11 10 -3 10 9 0 8 10 -5 33 -40 74 -66 217 -40 217 7 0 19 14 27
31 8 18 25 35 42 41 16 5 29 14 29 19 0 5 7 9 15 9 9 0 12 6 8 17 -5 13 -2 15
16 10 19 -4 25 0 36 28 9 21 24 35 40 39 15 4 36 24 51 49 15 23 31 43 35 45
4 2 6 9 4 15 -6 16 5 29 40 47 17 9 31 25 31 35 1 11 2 23 3 28 1 4 10 7 20 7
17 0 19 -6 17 -37z m-3276 -37 c0 -5 -7 -3 -15 4 -8 7 -12 17 -9 22 7 10 24
-9 24 -26z m1440 4 c0 -5 -4 -10 -10 -10 -5 0 -10 5 -10 10 0 6 5 10 10 10 6
0 10 -4 10 -10z m-1980 -125 c0 -8 -4 -15 -10 -15 -5 0 -7 7 -4 15 4 8 8 15
10 15 2 0 4 -7 4 -15z m4294 -11 c4 -9 4 -19 1 -22 -7 -8 -35 19 -29 29 8 14
21 11 28 -7z m1906 -129 c-7 -8 -9 -15 -6 -15 4 0 1 -7 -7 -15 -9 -8 -17 -20
-20 -27 -2 -8 -8 -9 -13 -4 -5 5 -4 11 4 13 6 3 12 10 12 17 0 16 31 59 37 52
3 -3 0 -12 -7 -21z m-6030 1 c0 -2 -9 -6 -20 -9 -11 -3 -18 -1 -14 4 5 9 34
13 34 5z m6413 -13 c-7 -2 -21 -2 -30 0 -10 3 -4 5 12 5 17 0 24 -2 18 -5z
m235 0 c-10 -2 -28 -2 -40 0 -13 2 -5 4 17 4 22 1 32 -1 23 -4z m65 0 c-7 -2
-21 -2 -30 0 -10 3 -4 5 12 5 17 0 24 -2 18 -5z m-6653 -126 c-12 -40 -6 -77
12 -77 5 0 8 7 4 15 -3 8 -1 15 4 15 6 0 10 -11 10 -25 0 -14 -4 -25 -10 -25
-5 0 -7 -8 -3 -17 4 -12 -1 -9 -15 7 -12 14 -21 20 -22 14 0 -6 -14 -9 -32 -8
-30 3 -31 3 -8 -5 23 -8 24 -9 3 -10 -12 -1 -29 6 -37 15 -9 8 -16 11 -16 5 0
-18 -18 -12 -22 7 -7 26 46 122 94 171 l43 45 3 -45 c2 -24 -2 -61 -8 -82z
m-80 103 c10 -6 11 -10 3 -10 -7 0 -12 -5 -10 -11 1 -7 -17 -26 -41 -43 -24
-17 -72 -59 -109 -93 -36 -35 -71 -63 -78 -63 -7 0 -15 -9 -18 -20 -3 -11 -11
-20 -19 -19 -10 0 -10 2 0 6 6 2 12 10 12 17 0 7 10 24 23 38 12 13 29 40 39
59 9 18 40 60 70 92 54 58 90 72 128 47z m390 -55 c11 -13 10 -14 -4 -9 -9 3
-16 10 -16 15 0 13 6 11 20 -6z m0 -34 c0 -4 -6 -13 -12 -21 -11 -12 -10 -12
5 0 16 12 19 11 24 -8 3 -12 10 -19 15 -16 15 10 29 -18 16 -33 -8 -10 -5 -13
11 -13 11 0 21 -6 21 -13 0 -21 -12 -28 -26 -16 -7 6 -19 9 -26 6 -8 -3 -5 -6
7 -7 l20 -1 -20 -9 c-17 -7 -17 -9 -2 -9 10 -1 17 -9 17 -21 0 -11 4 -20 9
-20 5 0 14 -15 22 -32 7 -18 19 -37 26 -41 9 -5 11 -16 7 -29 -3 -12 -1 -24 6
-28 7 -4 14 -18 16 -31 7 -48 25 -114 35 -123 5 -6 9 -21 9 -34 0 -13 11 -51
23 -85 13 -34 29 -80 36 -102 7 -22 20 -56 28 -75 35 -80 84 -186 95 -205 12
-21 38 -111 38 -132 0 -20 -28 -15 -40 7 -6 11 -17 20 -24 20 -16 0 -28 24
-33 65 -2 17 -8 32 -14 34 -24 8 -49 42 -49 66 0 14 -9 34 -20 45 -11 11 -22
31 -26 44 -3 14 -13 27 -21 30 -9 4 -13 13 -9 22 3 9 2 12 -5 8 -6 -4 -10 1
-8 12 1 11 -3 32 -9 47 -7 16 -12 33 -12 38 0 5 -3 9 -7 9 -13 0 -33 52 -33
86 0 18 -4 36 -10 39 -5 3 -10 14 -10 25 0 10 -6 20 -14 23 -10 4 -13 16 -10
36 3 16 0 32 -6 36 -5 3 -10 17 -10 31 0 13 -5 24 -11 24 -6 0 -9 6 -6 13 2 6
-3 20 -11 30 -17 19 -21 34 -24 80 0 15 -8 31 -16 36 -9 5 -12 13 -7 21 6 10
10 9 17 -4 5 -9 14 -14 19 -10 5 3 -4 23 -21 44 -16 21 -30 45 -30 53 0 9 -4
19 -10 22 -5 3 -10 11 -10 18 0 6 5 5 13 -4 32 -37 65 -59 80 -53 20 7 22 24
4 24 -32 0 -66 68 -48 97 3 5 31 -10 31 -16z m2147 -75 c18 -6 20 -3 15 19
l-5 26 64 -4 c42 -3 66 -10 74 -21 7 -9 20 -16 30 -16 9 0 30 -11 47 -25 16
-14 35 -25 41 -24 8 0 7 2 -1 6 -10 4 -9 9 4 24 12 13 14 22 7 31 -6 7 -7 22
-3 32 4 14 9 16 14 8 4 -7 26 -12 49 -12 49 0 59 -6 77 -40 7 -13 24 -33 37
-43 16 -13 23 -29 23 -53 0 -20 5 -34 13 -34 9 0 9 -2 -1 -9 -11 -6 -10 -10 4
-15 14 -6 16 -9 5 -15 -9 -6 -10 -11 -3 -15 17 -10 3 -36 -15 -29 -10 4 -14 2
-10 -4 4 -6 0 -16 -8 -23 -20 -17 -95 -30 -95 -17 0 5 -7 4 -15 -3 -8 -7 -15
-9 -15 -4 0 5 -5 2 -10 -6 -8 -12 -10 -10 -10 10 0 20 -2 22 -10 10 -9 -13
-12 -13 -25 4 -7 10 -18 15 -23 12 -6 -3 -13 1 -16 10 -3 8 -14 14 -23 13 -34
-3 -45 1 -40 15 6 16 -19 30 -35 19 -7 -3 -8 -1 -4 5 4 7 1 12 -8 12 -9 0 -16
5 -16 11 0 8 -5 8 -15 -1 -12 -10 -15 -9 -15 4 0 10 -4 14 -10 11 -5 -3 -10
-2 -10 3 0 6 -12 24 -27 40 -16 17 -39 44 -53 61 -14 16 -37 43 -52 60 -42 47
-33 58 10 13 21 -22 47 -42 59 -46z m4403 39 c0 -25 -4 -45 -10 -45 -11 0 -14
49 -4 74 10 26 14 18 14 -29z m605 -42 c0 -35 13 -38 48 -12 27 20 42 24 96
22 70 -2 79 -6 63 -26 -9 -10 -8 -18 2 -33 14 -18 15 -18 34 0 13 11 28 15 41
11 22 -7 29 -25 10 -25 -8 0 -8 -5 1 -15 7 -8 21 -15 31 -15 28 0 23 -21 -16
-62 -34 -38 -73 -52 -62 -24 6 16 -16 28 -37 20 -8 -3 -17 -1 -21 5 -3 6 4 15
17 20 17 7 19 10 6 10 -22 1 -23 10 -2 25 14 10 12 14 -10 26 -14 7 -26 19
-26 26 0 7 -8 17 -17 23 -16 8 -18 4 -19 -31 0 -28 -6 -45 -19 -54 -18 -13
-17 -14 9 -14 15 0 25 -4 21 -10 -3 -5 -15 -10 -26 -10 -22 0 -23 -8 -9 -45 6
-15 7 -32 3 -38 -4 -7 -12 15 -19 48 l-11 60 0 -82 c0 -54 4 -86 12 -93 9 -8
14 -4 19 12 6 20 9 17 27 -26 11 -27 17 -51 15 -54 -3 -2 -30 12 -61 33 -43
28 -59 34 -69 25 -10 -8 -17 -7 -28 3 -7 8 -24 19 -36 26 -12 7 -20 15 -18 20
3 4 -14 8 -37 10 -45 2 -58 8 -40 19 12 8 2 42 -18 59 -8 6 -29 13 -48 15 -38
3 -53 24 -24 35 10 3 22 12 26 20 4 7 13 13 19 13 6 0 26 14 45 30 32 29 48
34 85 31 9 -1 19 3 23 9 3 5 1 10 -4 10 -6 0 -11 7 -11 16 0 9 7 14 18 12 10
-2 17 -12 17 -25z m-445 -33 c-9 -6 -7 -11 9 -19 20 -11 30 -51 12 -51 -5 0
-7 -8 -4 -18 2 -10 -3 -24 -11 -31 -9 -8 -16 -23 -17 -35 0 -15 -6 -9 -19 21
-13 29 -16 50 -11 75 11 47 30 80 43 72 7 -4 6 -9 -2 -14z m-327 -36 c15 -3
27 -12 27 -18 0 -19 -47 -59 -55 -47 -12 21 -25 11 -25 -19 0 -16 -4 -30 -10
-30 -5 0 -10 5 -10 11 0 5 -5 7 -11 3 -13 -8 -2 55 12 71 5 5 9 17 9 28 0 13
5 17 18 13 9 -3 29 -8 45 -12z m214 -50 c-3 -3 -12 -4 -19 -1 -8 3 -5 6 6 6
11 1 17 -2 13 -5z m303 -30 c0 -4 -8 -13 -17 -20 -17 -13 -17 -15 0 -28 23
-18 22 -33 -4 -41 -36 -12 -52 35 -27 75 12 18 48 29 48 14z m650 -4 c0 -5 -2
-10 -4 -10 -3 0 -8 5 -11 10 -3 6 -1 10 4 10 6 0 11 -4 11 -10z m-590 -76 c0
-8 -4 -12 -10 -9 -5 3 -10 13 -10 21 0 8 5 12 10 9 6 -3 10 -13 10 -21z
m-7824 -19 c-16 -14 -33 -25 -38 -25 -5 0 -18 -9 -30 -20 -12 -11 -33 -20 -47
-20 -24 0 -24 0 -6 15 11 8 37 28 59 45 21 16 51 30 65 30 l26 0 -29 -25z
m8444 2 c0 -7 -13 -18 -30 -24 -21 -8 -30 -18 -30 -33 0 -19 2 -20 15 -10 13
11 15 8 15 -13 0 -14 6 -27 13 -30 6 -2 -3 -11 -20 -21 -32 -16 -39 -13 -34
16 0 4 -7 4 -16 1 -11 -4 -13 -8 -5 -11 7 -2 12 -11 12 -19 0 -9 -3 -13 -7
-10 -3 4 -12 -1 -19 -11 -8 -10 -13 -12 -14 -4 0 6 -5 12 -11 12 -6 0 -9 -7
-5 -15 3 -10 -1 -15 -12 -15 -12 0 -18 9 -20 28 -2 23 11 41 74 100 75 72 94
84 94 59z m-5043 -39 c-3 -8 -6 -5 -6 6 -1 11 2 17 5 13 3 -3 4 -12 1 -19z
m5239 -9 c32 -11 74 -24 92 -30 33 -10 46 -24 15 -16 -69 19 -142 43 -163 54
-37 19 -11 16 56 -8z m-587 -77 c33 -16 36 -22 59 -117 13 -55 30 -105 37
-111 9 -6 12 -23 10 -42 -6 -46 -11 -51 -43 -43 -25 7 -29 15 -55 123 -24 99
-32 117 -49 120 -12 2 -30 16 -42 31 -21 28 -21 29 -2 43 25 18 43 17 85 -4z
m798 12 c-3 -3 -12 -4 -19 -1 -8 3 -5 6 6 6 11 1 17 -2 13 -5z m-1677 -113 c0
-5 18 -27 39 -49 40 -41 61 -82 41 -82 -6 0 -8 -10 -4 -27 8 -37 56 -147 66
-151 4 -2 4 -10 2 -17 -9 -22 66 -95 100 -98 24 -2 31 3 35 22 6 21 8 22 19 8
8 -9 20 -13 28 -10 7 3 17 -2 20 -11 3 -9 12 -16 19 -16 7 0 15 -7 18 -14 4
-10 1 -13 -9 -9 -18 7 -17 -5 1 -37 8 -14 14 -35 15 -48 0 -22 -3 -23 -56 -18
-56 4 -100 27 -159 82 -14 13 -28 24 -30 24 -14 0 -65 32 -65 40 0 6 -11 28
-25 50 -14 22 -25 48 -25 58 0 10 -3 22 -7 26 -4 3 -8 28 -10 54 -2 26 -8 67
-14 92 -14 66 -19 140 -8 140 5 0 9 -4 9 -9z m719 -42 c28 -18 51 -34 51 -36
0 -3 -7 -11 -15 -20 -14 -14 -18 -13 -39 8 -13 13 -35 32 -50 42 -24 17 -27
37 -6 37 5 0 31 -14 59 -31z m95 -4 c23 -10 26 -13 11 -14 -11 0 -38 9 -60 20
-34 17 -35 19 -11 14 16 -3 43 -12 60 -20z m368 3 c4 -12 -33 -38 -53 -38 -18
0 -9 22 11 27 11 3 20 9 20 14 0 14 18 11 22 -3z m-1810 -26 c8 -9 13 -45 14
-91 0 -42 8 -118 18 -169 19 -103 17 -122 -13 -122 -23 0 -21 -4 -51 143 -11
54 -23 104 -27 110 -14 21 -33 82 -33 104 0 45 62 62 92 25z m970 -86 c37 -41
37 -67 0 -47 -29 15 -32 14 -32 -14 0 -15 16 -40 42 -67 33 -34 38 -44 25 -46
-18 -4 -77 28 -114 61 -14 12 -20 28 -18 45 2 15 -3 50 -10 77 -7 28 -11 53
-9 57 9 14 81 -26 116 -66z m-2635 7 c-3 -10 -5 -4 -5 12 0 17 2 24 5 18 2 -7
2 -21 0 -30z m-4147 -82 c0 -6 -8 -11 -17 -11 -23 1 -57 46 -49 66 5 13 12 10
36 -14 16 -17 30 -35 30 -41z m7545 19 c4 -6 -1 -7 -11 -3 -11 4 -15 3 -10 -5
3 -6 2 -13 -4 -17 -5 -3 -10 0 -10 8 0 25 23 36 35 17z m-435 -23 c0 -24 -19
-42 -30 -31 -9 9 -8 17 1 32 13 21 29 20 29 -1z m283 -37 c-9 -37 -42 -108
-53 -115 -5 -3 -15 -23 -21 -45 -14 -45 -63 -100 -90 -100 -28 0 -158 81 -165
103 -10 31 8 38 63 26 47 -11 54 -10 87 10 20 13 36 18 36 13 0 -7 11 -8 28
-3 15 4 33 6 40 4 6 -3 12 0 12 7 0 6 -4 8 -10 5 -6 -4 -10 8 -10 29 0 28 -5
36 -27 45 -27 11 -27 11 -3 7 14 -2 33 -7 43 -11 12 -5 17 -2 17 10 0 24 43
67 52 52 4 -7 4 -23 1 -37z m-8133 30 c0 -5 -7 -10 -15 -10 -8 0 -22 -11 -31
-25 -18 -28 -22 -29 -44 -15 -12 7 -12 12 4 29 10 11 30 22 45 24 14 2 29 5
34 6 4 0 7 -3 7 -9z m0 -28 c0 -4 -28 -37 -62 -74 -58 -62 -65 -66 -97 -61
-39 7 -24 22 24 24 l30 1 -30 8 -30 7 30 7 c48 12 51 14 25 15 -20 1 -22 3
-10 11 8 5 25 10 36 10 12 0 24 7 28 15 3 8 12 15 20 15 7 0 16 7 20 15 6 16
16 20 16 7z m787 -51 c4 -9 18 -30 32 -48 14 -17 40 -48 56 -69 30 -37 65 -77
107 -122 28 -31 12 -42 -59 -42 -40 0 -58 5 -73 20 -11 11 -20 17 -20 13 0 -5
-8 8 -17 27 -10 19 -23 38 -30 43 -7 4 -9 15 -6 24 4 10 2 14 -4 10 -6 -4 -13
0 -17 8 -3 8 0 15 6 15 6 0 4 8 -5 18 -10 10 -14 22 -10 26 4 3 -3 13 -15 22
-15 10 -22 24 -20 44 1 15 -4 35 -10 43 -11 13 -10 16 5 19 21 5 72 -27 80
-51z m7238 -1 c-3 -5 -10 -10 -16 -10 -5 0 -9 5 -9 10 0 6 7 10 16 10 8 0 12
-4 9 -10z m-359 -27 c-7 -7 -26 7 -26 19 0 6 6 6 15 -2 9 -7 13 -15 11 -17z
m-6721 8 c3 -5 1 -12 -5 -16 -5 -3 -10 1 -10 9 0 18 6 21 15 7z m7095 -21 c0
-5 -4 -10 -10 -10 -5 0 -10 5 -10 10 0 6 5 10 10 10 6 0 10 -4 10 -10z m-8186
-70 c-5 -5 -27 -6 -49 -2 l-40 7 45 5 c50 6 58 4 44 -10z m7156 0 c0 -5 -5
-10 -11 -10 -5 0 -7 5 -4 10 3 6 8 10 11 10 2 0 4 -4 4 -10z m-7193 -31 c-12
-7 -27 -7 -45 0 -25 9 -24 9 18 10 36 0 41 -2 27 -10z m7203 -3 c0 -7 7 -19
15 -26 8 -7 15 -23 15 -36 0 -13 5 -35 12 -49 10 -22 8 -28 -9 -45 -21 -19
-21 -19 -28 3 -4 12 -9 32 -11 44 -1 12 -8 31 -13 42 -12 22 -15 64 -4 74 11
12 23 8 23 -7z m648 -3 c38 -36 63 -53 77 -53 8 0 15 -7 15 -15 0 -10 10 -15
30 -15 21 0 30 -5 30 -16 0 -13 7 -15 38 -9 31 5 41 2 56 -14 18 -20 18 -21
-10 -32 -16 -6 -37 -15 -46 -20 -24 -12 -51 -11 -43 1 3 6 -3 10 -14 10 -11 0
-23 5 -26 10 -4 6 -15 8 -26 5 -24 -8 -109 32 -109 51 0 8 -4 14 -10 14 -13 0
-13 27 0 32 7 2 7 14 1 36 -11 37 6 44 37 15z m1502 -93 c74 -24 139 -46 143
-50 4 -4 -12 -20 -35 -36 -24 -16 -46 -33 -49 -38 -4 -4 -16 -3 -27 3 -29 15
-49 14 -49 -4 0 -8 3 -12 7 -10 3 2 12 -1 20 -6 12 -8 10 -14 -15 -34 -21 -18
-31 -21 -37 -12 -5 8 -8 7 -8 -5 0 -21 -7 -23 -24 -5 -7 6 -40 36 -74 66 -34
30 -59 58 -56 62 8 13 -14 47 -33 53 -14 4 -18 16 -18 48 1 68 9 73 68 39 29
-16 113 -48 187 -71z m-8075 40 c3 -5 1 -10 -4 -10 -6 0 -11 5 -11 10 0 6 2
10 4 10 3 0 8 -4 11 -10z m8315 -128 c0 -10 -22 -32 -31 -32 -5 0 -6 9 -4 19
2 14 -1 18 -11 14 -7 -3 -11 -9 -8 -14 3 -5 0 -10 -5 -10 -26 -3 -30 -4 -37
-11 -4 -5 -2 -8 4 -8 6 0 9 -7 6 -15 -5 -11 -2 -13 10 -9 9 3 16 1 16 -6 0 -6
5 -8 10 -5 6 3 10 -1 10 -10 0 -13 -4 -14 -20 -5 -11 6 -20 8 -20 5 0 -3 -10
0 -22 7 -13 7 -26 11 -30 10 -4 -1 -5 5 -1 14 3 8 12 13 20 10 8 -3 12 -2 9 3
-3 5 11 23 30 40 29 24 40 28 55 20 11 -5 19 -13 19 -17z m-346 -167 c-11 -8
-22 -15 -25 -15 -13 0 -17 28 -6 39 9 9 8 11 -5 6 -13 -5 -15 -2 -11 16 4 14
2 20 -4 16 -6 -4 -23 9 -37 27 -44 59 -29 54 40 -12 62 -59 65 -64 48 -77z
m-1664 115 c0 -5 -5 -10 -11 -10 -5 0 -7 5 -4 10 3 6 8 10 11 10 2 0 4 -4 4
-10z m-7617 -37 c-7 -2 -19 -2 -25 0 -7 3 -2 5 12 5 14 0 19 -2 13 -5z m9477
-1 c0 -13 -12 -22 -22 -16 -10 6 -1 24 13 24 5 0 9 -4 9 -8z m-3265 -22 c3 -5
-3 -10 -15 -10 -12 0 -18 5 -15 10 3 6 10 10 15 10 5 0 12 -4 15 -10z m2344
-25 c11 -14 22 -39 26 -54 6 -26 -21 -256 -31 -273 -7 -11 -42 -10 -49 2 -3 5
0 60 6 121 10 99 10 113 -4 121 -43 24 -63 77 -35 94 7 4 8 3 4 -4 -4 -7 6
-25 24 -42 16 -16 30 -36 30 -44 0 -15 24 -28 34 -19 11 11 6 33 -7 33 -16 0
-42 39 -43 68 -1 29 20 28 45 -3z m861 -5 c0 -5 7 -10 15 -10 8 0 15 -5 15
-11 0 -6 7 -8 16 -5 9 3 27 -2 40 -13 20 -16 21 -20 8 -25 -9 -3 -21 -3 -27 1
-18 11 -38 12 -31 2 10 -17 -11 -9 -50 17 -37 25 -38 28 -21 40 22 17 35 18
35 4z m353 -17 c13 -8 7 -206 -8 -248 -8 -22 -15 -48 -15 -57 0 -10 -4 -18
-10 -18 -5 0 -10 5 -10 11 0 5 -5 7 -10 4 -6 -4 -17 9 -25 27 -13 31 -14 31
-16 8 l-1 -25 -7 24 c-14 49 -2 211 20 268 8 21 13 24 42 18 17 -4 35 -9 40
-12z m-431 -45 c-6 -6 -16 -7 -22 -3 -9 6 -9 9 1 16 17 10 34 0 21 -13z m-50
-30 c-7 -7 -12 -8 -12 -2 0 14 12 26 19 19 2 -3 -1 -11 -7 -17z m-36 -56 c-4
-3 -11 0 -16 8 -15 24 -11 33 6 15 9 -9 13 -19 10 -23z m-74 -25 c-12 -13 -19
-27 -15 -30 3 -4 -1 -7 -10 -7 -9 0 -17 -6 -17 -13 0 -7 -9 -18 -20 -25 -25
-15 -26 -4 -2 15 15 13 15 14 0 9 -12 -3 -15 -1 -12 9 3 8 13 11 21 8 11 -4
14 -2 9 5 -4 7 6 20 26 32 43 26 46 25 20 -3z m38 -1 c0 -2 -8 -10 -17 -17
-16 -13 -17 -12 -4 4 13 16 21 21 21 13z m-6490 -16 c0 -5 -9 -10 -21 -10 -11
0 -17 5 -14 10 3 6 13 10 21 10 8 0 14 -4 14 -10z m-87 -17 c-7 -2 -19 -2 -25
0 -7 3 -2 5 12 5 14 0 19 -2 13 -5z m-268 -14 c6 -1 -3 -4 -20 -8 -33 -8 -55
-4 -55 10 0 7 30 7 75 -2z m6791 -14 c-1 -8 -5 -17 -8 -21 -5 -4 -4 16 1 34 3
9 9 -1 7 -13z"/>
<path d="M3836 4477 c3 -10 9 -15 12 -12 3 3 0 11 -7 18 -10 9 -11 8 -5 -6z"/>
<path d="M4120 3065 c0 -8 5 -15 10 -15 6 0 10 7 10 15 0 8 -4 15 -10 15 -5 0
-10 -7 -10 -15z"/>
<path d="M1135 1560 c3 -5 8 -10 11 -10 2 0 4 5 4 10 0 6 -5 10 -11 10 -5 0
-7 -4 -4 -10z"/>
<path d="M8316 1464 c-8 -22 -3 -26 24 -22 22 3 22 3 2 21 -18 17 -20 17 -26
1z"/>
<path d="M8270 1326 c14 -8 27 -12 29 -10 6 6 -1 11 -29 18 l-25 7 25 -15z"/>
<path d="M7655 800 c19 -21 37 -18 28 5 -3 8 -14 15 -26 15 -19 0 -19 -1 -2
-20z"/>
<path d="M6770 1155 c1 -26 2 -28 11 -12 8 14 8 22 0 30 -8 8 -11 3 -11 -18z"/>
<path d="M6778 1095 c2 -14 11 -25 18 -25 20 0 17 28 -5 39 -16 9 -17 7 -13
-14z"/>
<path d="M7305 650 c-3 -5 1 -10 9 -10 9 0 16 5 16 10 0 6 -4 10 -9 10 -6 0
-13 -4 -16 -10z"/>
<path d="M9320 451 c0 -7 -5 -9 -12 -5 -7 5 -8 3 -3 -5 5 -9 10 -10 18 -2 6 6
8 14 4 18 -4 3 -7 1 -7 -6z"/>
<path d="M9770 380 c0 -11 2 -20 4 -20 2 0 6 9 9 20 3 11 1 20 -4 20 -5 0 -9
-9 -9 -20z"/>
<path d="M4423 5740 c14 -11 31 -20 39 -20 7 0 19 9 26 20 12 19 10 20 -39 20
l-52 0 26 -20z"/>
<path d="M4560 5746 c6 -8 21 -16 33 -18 15 -2 26 -14 33 -36 5 -18 13 -30 17
-26 3 3 9 -6 13 -20 3 -15 15 -31 25 -36 19 -11 23 -2 47 108 l10 42 -95 0
c-82 0 -94 -2 -83 -14z"/>
<path d="M5420 5758 c0 -20 32 -162 41 -182 11 -24 16 -26 80 -26 l68 0 21 47
c11 26 28 55 37 65 27 30 79 21 125 -22 11 -10 30 -16 46 -14 15 2 38 4 52 6
35 3 47 -6 69 -57 14 -31 29 -48 53 -58 18 -8 42 -24 52 -36 43 -47 72 -17
102 105 22 88 41 127 60 120 8 -3 14 -2 14 3 0 13 69 43 81 35 6 -3 101 -8
211 -10 134 -3 219 -9 258 -19 32 -8 78 -15 103 -15 43 0 60 -10 63 -35 0 -5
2 -16 2 -22 1 -7 11 -13 23 -13 33 0 56 -17 67 -50 6 -16 16 -30 22 -30 11 0
50 81 50 105 0 31 26 36 141 28 125 -9 117 -4 151 -90 10 -25 19 -33 38 -33
14 0 31 -5 37 -11 8 -8 65 -13 150 -16 131 -4 364 -17 538 -31 90 -8 125 -24
155 -74 18 -29 19 -47 13 -240 l-6 -209 27 7 c42 10 94 -5 131 -38 50 -44 70
-116 61 -231 -7 -103 -21 -139 -76 -192 -22 -22 -40 -44 -40 -50 0 -6 -9 -27
-20 -47 -18 -33 -18 -39 -4 -53 8 -8 28 -15 44 -15 16 0 32 -5 35 -10 11 -18
-4 -47 -30 -58 l-26 -12 41 -51 c22 -28 40 -57 40 -64 0 -6 -11 -29 -26 -50
-29 -43 -31 -102 -3 -97 11 1 19 -7 23 -22 10 -41 -1 -55 -40 -49 -40 7 -94
-13 -94 -35 0 -9 9 -25 20 -37 l20 -22 -34 -57 c-70 -116 -60 -146 46 -146 41
0 80 -6 97 -15 36 -18 435 -23 491 -6 19 6 51 11 71 11 32 0 38 -4 44 -27 5
-20 1 -31 -18 -49 -24 -22 -25 -30 -33 -191 -5 -92 -9 -208 -9 -258 l0 -89 90
-13 c50 -6 122 -17 160 -22 39 -6 75 -10 81 -11 13 0 34 87 34 140 0 21 5 42
10 45 8 5 8 11 0 20 -10 12 -9 91 4 275 7 97 16 315 21 489 2 85 6 166 9 180
3 14 8 85 11 156 5 123 13 272 20 360 2 22 6 81 10 130 3 50 11 126 16 170 6
44 13 100 14 125 7 97 27 257 36 286 5 17 7 38 3 47 -3 10 1 35 10 57 9 22 16
54 16 70 0 22 6 33 24 41 35 16 76 4 69 -20 -7 -28 11 -34 92 -32 66 2 74 0
80 -19 3 -11 3 -29 0 -40 -6 -19 -2 -20 56 -20 73 0 146 -30 159 -65 9 -23 38
-36 108 -50 l32 -7 0 221 0 221 -2410 0 c-1325 0 -2410 -1 -2410 -2z m3080
-333 c0 -17 -66 -43 -96 -37 -13 2 -24 8 -24 12 0 13 45 38 76 42 35 4 44 1
44 -17z m359 -665 c42 -5 77 -14 82 -22 14 -21 2 -348 -13 -366 -7 -8 -12 -23
-10 -34 2 -10 -2 -18 -8 -18 -7 0 -8 -6 0 -19 5 -11 7 -26 4 -34 -3 -8 -1 -18
5 -22 16 -9 13 -51 -4 -65 -27 -22 -115 10 -115 43 0 5 13 26 29 46 32 40 35
69 9 95 -10 10 -18 25 -18 34 0 10 -7 27 -15 39 -13 19 -22 20 -97 16 -123 -7
-123 -7 -108 148 12 130 22 165 49 172 18 5 97 0 210 -13z m25 -647 c-4 -16
-12 -31 -18 -35 -23 -16 -110 16 -103 37 4 10 50 21 100 24 25 1 27 -1 21 -26z
m26 -164 c20 -28 21 -34 10 -75 -17 -61 -42 -73 -85 -42 -19 13 -44 37 -56 52
l-23 29 34 28 c30 25 48 33 87 38 6 0 21 -13 33 -30z"/>
<path d="M6255 5371 c-24 -79 -18 -91 45 -91 42 0 50 3 50 19 0 10 -7 25 -16
32 -9 8 -25 33 -35 56 -10 24 -20 43 -22 43 -2 0 -12 -27 -22 -59z"/>
<path d="M5530 5400 c0 -5 10 -10 23 -10 18 0 19 2 7 10 -19 13 -30 13 -30 0z"/>
<path d="M4592 5311 c4 -13 18 -16 19 -4 0 4 -5 9 -11 12 -7 2 -11 -2 -8 -8z"/>
<path d="M5829 5311 c11 -7 12 -13 3 -23 -9 -11 -9 -17 0 -26 16 -16 38 -15
38 1 0 18 -29 57 -43 57 -8 0 -7 -4 2 -9z"/>
<path d="M5957 5193 c-14 -13 -8 -83 7 -83 17 0 26 22 26 61 0 27 -17 39 -33
22z"/>
<path d="M4983 4999 c-8 -8 -13 -43 -13 -96 0 -74 2 -83 22 -94 l21 -11 -22
-17 c-21 -16 -21 -20 -19 -251 l3 -234 34 -7 c18 -4 116 -10 216 -14 136 -5
184 -4 190 4 9 15 -22 51 -44 51 -30 0 -63 31 -57 53 5 21 -9 47 -25 47 -7 0
-20 -29 -25 -59 -5 -27 -23 -35 -51 -25 -25 8 -28 15 -31 63 -5 79 19 96 96
69 29 -11 35 -10 43 4 7 13 19 16 52 12 42 -5 57 -16 99 -77 10 -15 31 -27 50
-30 18 -3 53 -10 78 -16 25 -5 77 -7 116 -4 63 5 78 3 127 -21 31 -14 66 -26
78 -26 35 0 101 23 106 37 3 7 -9 29 -26 49 l-32 35 30 37 c27 35 33 58 40
164 1 4 15 15 32 23 25 13 36 14 66 4 23 -7 71 -10 132 -7 157 9 164 1 165
-187 l1 -130 51 -3 c50 -3 52 -2 74 35 22 37 22 39 6 105 -17 71 -11 110 19
122 54 20 91 -17 79 -81 -4 -21 -11 -47 -17 -58 -22 -40 4 -107 46 -121 27 -9
82 -6 123 7 20 6 40 6 57 0 37 -14 43 -1 55 113 8 84 13 103 32 118 29 23 65
23 88 0 28 -28 38 -142 16 -183 -15 -30 -15 -33 4 -52 14 -14 38 -22 75 -25
49 -4 57 -2 70 19 8 13 17 56 20 96 4 64 2 76 -19 107 -28 41 -32 105 -10 157
10 24 11 40 4 59 -5 14 -10 57 -12 97 -1 40 -4 75 -8 78 -3 3 -194 10 -424 15
-419 9 -655 16 -834 25 -52 3 -243 9 -425 15 -181 5 -370 12 -420 16 -66 4
-93 2 -102 -7z m562 -389 c3 -6 17 -7 29 -4 30 7 96 -30 71 -40 -9 -3 -27 -6
-40 -6 -12 0 -26 -7 -29 -16 -5 -12 -15 -15 -39 -11 -134 22 -143 26 -110 57
30 27 105 40 118 20z m14 -146 c-13 -16 -51 -12 -57 6 -3 7 3 19 13 27 16 11
21 10 37 -4 13 -12 15 -19 7 -29z m-494 -26 c-8 -82 -11 -88 -34 -88 -35 0
-43 66 -11 95 11 10 20 26 20 37 0 10 7 18 15 18 14 0 15 -10 10 -62z m775 47
c0 -8 -3 -16 -7 -16 -63 -11 -96 -2 -62 17 33 18 69 18 69 -1z m-115 -25 c0
-22 -29 -18 -33 3 -3 14 1 18 15 15 10 -2 18 -10 18 -18z"/>
<path d="M2450 4869 c-7 -11 -9 -23 -6 -26 10 -11 56 16 56 32 0 22 -38 18
-50 -6z"/>
<path d="M8294 4844 c3 -9 6 -18 6 -20 0 -2 5 -4 10 -4 6 0 10 9 10 20 0 12
-7 20 -16 20 -11 0 -14 -5 -10 -16z"/>
<path d="M710 4763 c0 -37 14 -57 34 -50 22 9 20 54 -3 67 -28 15 -31 13 -31
-17z"/>
<path d="M2013 4598 c2 -138 4 -163 17 -163 12 0 15 22 18 129 2 79 -1 133 -8
140 -5 5 -10 20 -10 33 0 13 -4 23 -9 23 -5 0 -8 -72 -8 -162z"/>
<path d="M1043 4453 c-28 -5 -29 -15 -4 -37 26 -24 91 -30 91 -10 0 45 -25 59
-87 47z"/>
<path d="M890 4435 c0 -8 5 -15 10 -15 6 0 10 7 10 15 0 8 -4 15 -10 15 -5 0
-10 -7 -10 -15z"/>
<path d="M2267 4374 c-3 -4 1 -20 9 -36 12 -24 18 -27 30 -17 19 15 18 45 -2
53 -20 8 -29 8 -37 0z"/>
<path d="M5127 4193 c-4 -3 -7 -49 -7 -102 0 -53 -5 -125 -12 -161 -14 -85
-16 -199 -3 -217 9 -12 15 -11 38 7 25 20 27 26 27 103 0 73 3 87 28 122 25
37 27 47 26 138 0 74 -4 101 -15 108 -16 10 -73 12 -82 2z"/>
<path d="M4881 4164 c0 -11 3 -14 6 -6 3 7 2 16 -1 19 -3 4 -6 -2 -5 -13z"/>
<path d="M2238 4153 c-9 -10 -18 -30 -20 -46 -6 -33 31 -183 54 -215 12 -18
14 -31 7 -55 -15 -54 -11 -124 11 -159 l19 -32 11 29 c16 41 14 124 -3 170
-10 25 -17 89 -20 174 -4 98 -8 136 -18 142 -20 12 -24 11 -41 -8z"/>
<path d="M6114 4151 c-45 -11 -54 -19 -54 -50 0 -37 17 -51 63 -51 36 0 107
40 107 60 0 10 -64 50 -76 49 -5 -1 -23 -4 -40 -8z"/>
<path d="M6816 4131 c-23 -16 -48 -19 -138 -19 -71 0 -122 5 -143 14 -40 16
-45 9 -45 -69 0 -29 -5 -110 -12 -180 -8 -96 -16 -134 -29 -150 -14 -17 -21
-20 -35 -11 -19 11 -19 11 -56 94 -20 46 -23 61 -15 88 7 23 7 48 -1 80 -6 26
-14 68 -18 95 -5 41 -9 47 -30 47 -13 0 -27 -8 -32 -17 -10 -20 -16 -105 -14
-170 1 -24 3 -67 5 -95 1 -29 -1 -76 -5 -105 -6 -43 -4 -52 10 -58 9 -4 89 -9
177 -11 128 -2 183 1 275 17 110 19 116 19 153 2 l39 -17 23 27 c21 24 28 26
75 20 28 -3 57 -11 63 -18 19 -19 54 -35 75 -35 30 0 62 32 67 66 6 53 -7 59
-128 53 -27 -1 -67 31 -67 53 0 44 48 64 115 47 35 -9 52 -9 76 1 l30 13 -41
42 c-28 28 -50 43 -68 43 -31 0 -44 16 -67 87 -12 41 -22 55 -36 55 -35 0 -45
-41 -34 -132 6 -44 -6 -71 -20 -48 -11 18 -13 60 -3 60 5 0 6 5 2 12 -4 7 -8
26 -8 42 1 17 -7 45 -16 61 -14 25 -24 30 -56 32 -24 1 -50 -5 -68 -16z m155
-324 c-8 -8 -11 -7 -11 4 0 20 13 34 18 19 3 -7 -1 -17 -7 -23z m-4 -39 c-3
-8 -6 -5 -6 6 -1 11 2 17 5 13 3 -3 4 -12 1 -19z"/>
<path d="M4850 4120 c-13 -9 -13 -11 0 -20 22 -15 30 -12 30 10 0 22 -8 25
-30 10z"/>
<path d="M2670 4073 c0 -5 5 -15 10 -23 8 -12 10 -11 10 8 0 12 -4 22 -10 22
-5 0 -10 -3 -10 -7z"/>
<path d="M5901 3986 c-9 -11 -11 -31 -6 -63 3 -27 2 -59 -3 -73 l-9 -25 -17
32 c-9 18 -16 41 -16 53 0 21 -10 24 -48 14 -27 -8 -57 -96 -46 -141 14 -58
36 -83 74 -83 19 -1 46 -7 60 -15 16 -9 56 -14 113 -15 80 0 90 2 112 25 14
13 25 30 25 38 0 7 12 24 26 38 22 21 25 30 21 76 -6 76 -12 80 -109 77 -90
-3 -111 4 -130 43 -16 32 -31 38 -47 19z"/>
<path d="M8010 3800 c-6 -12 -9 -24 -6 -27 10 -10 34 6 32 21 -4 26 -14 29
-26 6z"/>
<path d="M220 3456 c0 -14 5 -28 10 -31 6 -4 10 7 10 24 0 17 -4 31 -10 31 -5
0 -10 -11 -10 -24z"/>
<path d="M226 3348 c14 -214 18 -249 26 -234 5 8 6 57 2 108 -4 51 -7 112 -7
136 0 27 -4 42 -12 42 -9 0 -11 -15 -9 -52z"/>
<path d="M160 3370 c0 -5 5 -10 10 -10 6 0 10 5 10 10 0 6 -4 10 -10 10 -5 0
-10 -4 -10 -10z"/>
<path d="M584 3319 c-3 -6 -1 -16 5 -22 8 -8 11 -5 11 11 0 24 -5 28 -16 11z"/>
<path d="M172 3255 c0 -16 2 -22 5 -12 2 9 2 23 0 30 -3 6 -5 -1 -5 -18z"/>
<path d="M1 3230 c0 -33 1 -34 11 -12 8 17 8 26 0 34 -9 9 -12 4 -11 -22z"/>
<path d="M324 3241 c-12 -11 -25 -17 -28 -14 -3 4 -6 -1 -6 -10 0 -9 7 -17 15
-17 20 0 19 -36 -2 -44 -14 -6 -14 -8 3 -21 10 -8 27 -15 37 -15 9 0 17 -4 17
-10 0 -5 7 -10 16 -10 8 0 13 4 9 9 -3 5 -1 12 4 15 5 4 8 30 6 59 -3 65 -3
63 -17 49 -17 -17 -26 -15 -30 9 l-3 20 -21 -20z"/>
<path d="M126 3215 c-3 -9 0 -15 9 -15 9 0 12 6 9 15 -4 8 -7 15 -9 15 -2 0
-5 -7 -9 -15z"/>
<path d="M201 3214 c0 -11 3 -14 6 -6 3 7 2 16 -1 19 -3 4 -6 -2 -5 -13z"/>
<path d="M7695 3200 c-71 -3 -138 -9 -148 -14 -21 -10 -47 -57 -47 -86 0 -19
5 -20 183 -20 224 0 317 8 317 26 0 8 -12 27 -27 44 -40 43 -116 56 -278 50z"/>
<path d="M6323 3161 c-34 -4 -70 -14 -79 -22 -18 -15 -17 -33 10 -154 19 -85
20 -159 4 -173 -8 -6 -175 -13 -433 -18 l-420 -9 160 -53 c88 -29 180 -65 205
-79 94 -55 200 -177 247 -283 l20 -46 74 4 c267 12 362 21 378 37 13 13 18 58
26 263 6 136 14 255 19 264 11 24 2 35 -42 49 -51 16 -62 27 -62 60 0 36 23
49 87 49 26 0 55 5 63 10 13 8 12 13 -6 37 -45 60 -123 79 -251 64z"/>
<path d="M247 2974 c3 -58 9 -117 13 -132 5 -16 6 8 5 63 -2 50 -4 109 -4 133
-1 23 -5 42 -10 42 -6 0 -7 -43 -4 -106z"/>
<path d="M2535 3030 c3 -5 8 -10 11 -10 2 0 4 5 4 10 0 6 -5 10 -11 10 -5 0
-7 -4 -4 -10z"/>
<path d="M362 2978 c-6 -6 -12 -31 -12 -55 0 -24 -3 -43 -8 -43 -4 0 -9 -24
-10 -52 -2 -29 -6 -101 -10 -160 -5 -79 -3 -120 6 -155 8 -27 14 -59 14 -71 0
-17 8 -27 29 -34 16 -5 29 -14 29 -20 0 -5 -4 -6 -10 -3 -5 3 -10 -1 -10 -10
0 -28 37 1 50 39 16 51 30 189 19 201 -14 14 -11 25 6 25 20 0 19 17 -2 29
-16 10 -16 11 5 17 23 7 26 28 4 30 -7 1 -17 2 -22 3 -6 0 -10 7 -8 14 1 6 -5
35 -14 62 -9 28 -17 74 -17 104 0 30 -5 57 -9 60 -5 3 -11 12 -13 19 -3 10 -7
10 -17 0z"/>
<path d="M10231 2934 c0 -11 3 -14 6 -6 3 7 2 16 -1 19 -3 4 -6 -2 -5 -13z"/>
<path d="M0 2915 c1 -26 2 -28 11 -12 8 14 8 22 0 30 -8 8 -11 3 -11 -18z"/>
<path d="M6560 2905 c0 -4 11 -20 25 -37 24 -28 27 -42 30 -113 1 -16 5 -114
9 -217 l8 -188 52 0 c28 0 80 -1 115 -3 47 -3 66 0 75 11 6 8 29 32 51 53 34
33 49 40 111 50 86 15 88 31 6 54 -31 9 -65 23 -76 31 -20 14 -20 14 0 14 11
0 24 -3 28 -7 10 -11 61 -17 109 -15 l27 2 0 93 c0 71 4 101 19 130 10 20 15
39 11 42 -5 3 -31 7 -59 10 -28 3 -83 12 -122 20 -97 21 -126 19 -139 -6 -18
-33 -71 -23 -89 19 -11 24 -24 35 -50 41 -55 14 -141 24 -141 16z"/>
<path d="M10225 2821 c-3 -5 -1 -12 5 -16 5 -3 10 1 10 9 0 18 -6 21 -15 7z"/>
<path d="M4620 2802 c0 -11 4 -23 8 -26 10 -6 9 30 -1 40 -4 4 -7 -2 -7 -14z"/>
<path d="M10232 2753 c-1 -33 -6 -43 -19 -43 -15 0 -15 -1 1 -13 14 -10 16
-21 11 -51 -4 -21 -13 -40 -20 -43 -10 -3 -8 -10 7 -25 11 -11 22 -18 24 -15
3 2 3 56 1 118 -1 63 -4 95 -5 72z"/>
<path d="M262 2760 c0 -14 2 -19 5 -12 2 6 2 18 0 25 -3 6 -5 1 -5 -13z"/>
<path d="M1 2720 c1 -25 4 -36 6 -25 3 11 10 23 17 27 8 5 6 13 -6 25 -17 16
-18 15 -17 -27z"/>
<path d="M80 2709 c0 -5 5 -7 10 -4 6 3 10 8 10 11 0 2 -4 4 -10 4 -5 0 -10
-5 -10 -11z"/>
<path d="M272 2665 c0 -16 2 -22 5 -12 2 9 2 23 0 30 -3 6 -5 -1 -5 -18z"/>
<path d="M62 2668 c-16 -16 -15 -28 3 -28 8 0 15 9 15 20 0 23 -2 24 -18 8z"/>
<path d="M1860 2671 c0 -6 5 -13 10 -16 6 -3 10 1 10 9 0 9 -4 16 -10 16 -5 0
-10 -4 -10 -9z"/>
<path d="M4668 2485 c2 -91 7 -165 11 -165 5 0 7 14 5 30 -2 17 1 30 7 30 8 0
7 5 -1 15 -7 9 -8 15 -2 15 6 0 7 13 2 37 -5 21 -5 44 0 54 5 9 6 19 3 23 -4
4 -8 28 -9 54 -3 68 -3 72 -11 72 -5 0 -7 -74 -5 -165z"/>
<path d="M1860 2630 c0 -5 5 -10 10 -10 6 0 10 5 10 10 0 6 -4 10 -10 10 -5 0
-10 -4 -10 -10z"/>
<path d="M40 2615 c-10 -12 -10 -19 -1 -28 9 -9 14 -9 21 3 22 34 4 54 -20 25z"/>
<path d="M2 2580 c0 -14 2 -19 5 -12 2 6 2 18 0 25 -3 6 -5 1 -5 -13z"/>
<path d="M0 2459 c0 -11 4 -17 10 -14 5 3 10 -2 11 -12 0 -16 1 -16 9 2 14 33
11 45 -10 45 -14 0 -20 -7 -20 -21z"/>
<path d="M5176 2394 c-4 -9 -4 -19 -1 -22 2 -3 7 3 11 12 4 9 4 19 1 22 -2 3
-7 -3 -11 -12z"/>
<path d="M1265 2370 c-3 -5 -1 -10 4 -10 6 0 11 5 11 10 0 6 -2 10 -4 10 -3 0
-8 -4 -11 -10z"/>
<path d="M2215 2370 c-3 -5 1 -10 9 -10 9 0 16 5 16 10 0 6 -4 10 -9 10 -6 0
-13 -4 -16 -10z"/>
<path d="M1145 2350 c3 -5 8 -10 11 -10 2 0 4 5 4 10 0 6 -5 10 -11 10 -5 0
-7 -4 -4 -10z"/>
<path d="M5167 2340 c-3 -11 -1 -23 4 -26 5 -3 9 6 9 20 0 31 -6 34 -13 6z"/>
<path d="M9280 2324 c0 -17 82 -98 137 -137 32 -22 33 -23 33 -102 -1 -78 -6
-178 -31 -604 l-12 -205 32 -28 c25 -22 41 -28 79 -28 26 1 65 9 87 20 22 11
61 19 87 20 l47 0 71 123 c40 67 101 166 136 221 35 54 64 103 64 107 0 5 -11
7 -25 3 -13 -3 -77 -6 -142 -7 -100 -1 -125 2 -163 19 -25 12 -51 28 -58 36
-33 40 35 82 119 73 30 -3 70 -7 89 -9 86 -9 137 -19 157 -32 48 -30 72 -19
165 74 l88 88 0 107 c0 102 -1 107 -22 112 -49 11 -906 165 -922 165 -9 0 -16
-7 -16 -16z m297 -1040 c-3 -3 -12 -4 -19 -1 -8 3 -5 6 6 6 11 1 17 -2 13 -5z
m-8 -21 c8 -6 -13 -21 -39 -28 -18 -4 -35 1 -60 20 l-34 25 64 -6 c36 -4 67
-8 69 -11z"/>
<path d="M4670 2291 c0 -12 5 -21 10 -21 6 0 10 6 10 14 0 8 -4 18 -10 21 -5
3 -10 -3 -10 -14z"/>
<path d="M1292 2293 c-6 -2 -10 -9 -7 -13 7 -11 35 -2 35 11 0 10 -8 10 -28 2z"/>
<path d="M4671 2215 l1 -50 8 40 c5 22 4 44 -1 50 -5 5 -9 -11 -8 -40z"/>
<path d="M2395 2240 c3 -5 8 -10 11 -10 2 0 4 5 4 10 0 6 -5 10 -11 10 -5 0
-7 -4 -4 -10z"/>
<path d="M5292 2190 c0 -14 2 -19 5 -12 2 6 2 18 0 25 -3 6 -5 1 -5 -13z"/>
<path d="M5590 2195 c0 -8 -11 -20 -25 -25 -29 -11 -31 -17 -8 -42 18 -20 10
-39 -9 -20 -7 7 -16 12 -22 12 -6 0 -5 -5 2 -12 8 -8 9 -15 1 -25 -9 -9 -8
-13 0 -13 7 0 11 -8 9 -17 -2 -10 3 -17 10 -15 6 1 12 -4 12 -12 0 -7 7 -19
15 -26 10 -9 15 -9 15 -1 0 6 -4 11 -10 11 -5 0 -10 7 -10 15 0 8 6 12 15 9
14 -6 14 20 0 89 -2 9 1 15 6 11 5 -3 9 6 9 20 0 13 4 26 9 28 5 2 3 9 -5 16
-12 11 -14 10 -14 -3z"/>
<path d="M5288 2153 c7 -3 16 -2 19 1 4 3 -2 6 -13 5 -11 0 -14 -3 -6 -6z"/>
<path d="M5522 1992 c1 -18 5 -35 10 -38 4 -3 6 -10 3 -15 -4 -5 0 -9 8 -9 19
0 29 38 13 48 -7 4 -18 16 -24 27 -9 18 -11 16 -10 -13z"/>
<path d="M5500 1990 c0 -5 5 -10 11 -10 5 0 7 5 4 10 -3 6 -8 10 -11 10 -2 0
-4 -4 -4 -10z"/>
<path d="M5580 1954 c0 -8 5 -12 10 -9 6 3 10 10 10 16 0 5 -4 9 -10 9 -5 0
-10 -7 -10 -16z"/>
<path d="M5523 1870 c4 -15 0 -20 -15 -20 -10 0 -17 -4 -13 -10 3 -5 12 -7 20
-3 18 6 18 7 6 -34 -6 -20 -6 -35 0 -38 14 -9 11 -25 -6 -25 -8 0 -15 -5 -15
-12 0 -6 3 -9 6 -6 3 4 21 0 41 -8 27 -12 33 -12 27 -2 -5 7 -9 16 -10 21 -1
4 -2 10 -3 15 -1 4 -6 0 -11 -8 -6 -9 -10 -10 -10 -3 0 7 7 16 15 20 16 10 29
83 15 83 -6 0 -10 -12 -10 -26 0 -14 -4 -23 -10 -19 -6 3 -6 15 0 29 11 31 2
66 -17 66 -10 0 -14 -7 -10 -20z"/>
<path d="M5513 1703 c-18 -7 -16 -30 1 -30 8 0 14 9 13 19 -1 10 -1 18 -2 17
0 0 -6 -3 -12 -6z"/>
<path d="M5686 1688 c-11 -31 -26 -200 -25 -278 l1 -85 15 45 c8 25 14 59 14
75 0 17 4 46 9 65 15 59 17 183 2 188 -6 2 -14 -2 -16 -10z"/>
<path d="M5545 1669 c-9 -14 -2 -20 14 -10 8 6 9 11 3 15 -6 3 -14 1 -17 -5z"/>
<path d="M5530 1629 c0 -5 5 -7 10 -4 6 3 10 8 10 11 0 2 -4 4 -10 4 -5 0 -10
-5 -10 -11z"/>
<path d="M5610 1014 c0 -8 5 -12 10 -9 6 3 10 10 10 16 0 5 -4 9 -10 9 -5 0
-10 -7 -10 -16z"/>
<path d="M8890 539 c0 -5 9 -9 20 -9 11 0 20 2 20 4 0 2 -9 6 -20 9 -11 3 -20
1 -20 -4z"/>
<path d="M260 490 c0 -5 4 -10 9 -10 6 0 13 5 16 10 3 6 -1 10 -9 10 -9 0 -16
-4 -16 -10z"/>
<path d="M909 326 c-6 -5 -450 -16 -691 -16 l-218 0 0 -155 0 -155 981 0 980
0 -36 44 c-120 146 -294 235 -532 271 -91 13 -471 22 -484 11z"/>
</g>
</svg>
